<svg width="22" height="22" viewBox="0 0 22 22" fill="none" xmlns="http://www.w3.org/2000/svg">
<path d="M20.15 4.87252L11.9 0.356583C11.6243 0.204843 11.3147 0.125275 11 0.125275C10.6853 0.125275 10.3757 0.204843 10.1 0.356583L1.85 4.87252C1.5548 5.03404 1.3085 5.27203 1.13695 5.56152C0.965404 5.85101 0.874922 6.18133 0.875 6.51783V15.4822C0.874922 15.8187 0.965404 16.149 1.13695 16.4385C1.3085 16.728 1.5548 16.966 1.85 17.1275L10.1 21.6435C10.3756 21.7954 10.6853 21.875 11 21.875C11.3147 21.875 11.6244 21.7954 11.9 21.6435L20.15 17.1275C20.4452 16.966 20.6915 16.728 20.863 16.4385C21.0346 16.149 21.1251 15.8187 21.125 15.4822V6.51783C21.1251 6.18133 21.0346 5.85101 20.863 5.56152C20.6915 5.27203 20.4452 5.03404 20.15 4.87252ZM11 2.42846L17.75 6.12502L11 9.81877L4.25 6.12502L11 2.42846ZM3.125 8.07408L9.875 11.7678V18.9556L3.125 15.26V8.07408ZM12.125 18.9556V11.7678L18.875 8.07408V15.26L12.125 18.9556Z" fill="#94A3B8"/>
</svg>
