<svg width="14" height="14" viewBox="0 0 14 14" fill="none" xmlns="http://www.w3.org/2000/svg">
<path d="M13.2882 11.9617C13.4644 12.1379 13.5633 12.3767 13.5633 12.6258C13.5633 12.8749 13.4644 13.1137 13.2882 13.2899C13.1121 13.466 12.8733 13.5649 12.6242 13.5649C12.3751 13.5649 12.1362 13.466 11.9601 13.2899L6.99997 8.32814L2.03825 13.2883C1.86213 13.4644 1.62326 13.5634 1.37418 13.5634C1.12511 13.5634 0.886243 13.4644 0.710122 13.2883C0.534002 13.1122 0.435059 12.8733 0.435059 12.6242C0.435059 12.3752 0.534002 12.1363 0.710122 11.9602L5.67184 7.00001L0.711685 2.0383C0.535564 1.86218 0.436621 1.62331 0.436621 1.37423C0.436621 1.12516 0.535564 0.886291 0.711685 0.710171C0.887805 0.534051 1.12668 0.435107 1.37575 0.435107C1.62482 0.435107 1.86369 0.534051 2.03981 0.710171L6.99997 5.67189L11.9617 0.70939C12.1378 0.533269 12.3767 0.434326 12.6257 0.434326C12.8748 0.434326 13.1137 0.533269 13.2898 0.70939C13.4659 0.88551 13.5649 1.12438 13.5649 1.37345C13.5649 1.62252 13.4659 1.86139 13.2898 2.03751L8.32809 7.00001L13.2882 11.9617Z" fill="#94A3B8"/>
</svg>
