<svg width="20" height="21" viewBox="0 0 20 21" fill="none" xmlns="http://www.w3.org/2000/svg">
<path d="M18.8256 8.92346L11.3256 1.42346C10.974 1.07195 10.4972 0.874481 10 0.874481C9.50283 0.874481 9.026 1.07195 8.67438 1.42346L1.17438 8.92346C0.999566 9.0972 0.860985 9.30393 0.766679 9.53165C0.672372 9.75937 0.624218 10.0035 0.62501 10.25V19.25C0.62501 19.5484 0.743536 19.8345 0.954515 20.0455C1.16549 20.2565 1.45164 20.375 1.75001 20.375H18.25C18.5484 20.375 18.8345 20.2565 19.0455 20.0455C19.2565 19.8345 19.375 19.5484 19.375 19.25V10.25C19.3758 10.0035 19.3276 9.75937 19.2333 9.53165C19.139 9.30393 19.0005 9.0972 18.8256 8.92346ZM17.125 18.125H2.87501V10.4047L10 3.27971L17.125 10.4047V18.125Z" fill="#94A3B8"/>
</svg>
