<svg width="24" height="16" viewBox="0 0 24 16" fill="none" xmlns="http://www.w3.org/2000/svg">
<path d="M11.7356 10.7131C12.6778 9.92114 13.3537 8.85852 13.6715 7.66937C13.9893 6.48023 13.9337 5.22211 13.5122 4.06563C13.0908 2.90916 12.3238 1.9103 11.3154 1.20451C10.3069 0.498714 9.10585 0.120148 7.87496 0.120148C6.64408 0.120148 5.44298 0.498714 4.43455 1.20451C3.42612 1.9103 2.65916 2.90916 2.23768 4.06563C1.8162 5.22211 1.7606 6.48023 2.07842 7.66937C2.39624 8.85852 3.0721 9.92114 4.01434 10.7131C2.54301 11.3784 1.26795 12.4116 0.312151 13.7131C0.135616 13.9537 0.0618736 14.2545 0.107146 14.5495C0.152419 14.8444 0.312997 15.1093 0.553557 15.2858C0.794117 15.4623 1.09495 15.5361 1.38988 15.4908C1.68481 15.4455 1.94968 15.2849 2.12621 15.0444C2.78785 14.1408 3.65318 13.4058 4.652 12.8992C5.65083 12.3926 6.75501 12.1286 7.87496 12.1286C8.99492 12.1286 10.0991 12.3926 11.0979 12.8992C12.0967 13.4058 12.9621 14.1408 13.6237 15.0444C13.8002 15.2851 14.0652 15.4458 14.3602 15.4911C14.6552 15.5365 14.9562 15.4628 15.1968 15.2863C15.4375 15.1097 15.5982 14.8448 15.6436 14.5498C15.6889 14.2548 15.6152 13.9538 15.4387 13.7131C14.4823 12.4118 13.207 11.3787 11.7356 10.7131ZM4.12496 6.12501C4.12496 5.38333 4.3449 4.65831 4.75695 4.04163C5.16901 3.42494 5.75468 2.94429 6.4399 2.66047C7.12512 2.37664 7.87912 2.30237 8.60655 2.44707C9.33398 2.59176 10.0022 2.94892 10.5266 3.47336C11.0511 3.99781 11.4082 4.666 11.5529 5.39343C11.6976 6.12085 11.6233 6.87485 11.3395 7.56008C11.0557 8.2453 10.575 8.83097 9.95835 9.24303C9.34167 9.65508 8.61664 9.87501 7.87496 9.87501C6.8804 9.87501 5.92657 9.47993 5.22331 8.77666C4.52005 8.0734 4.12496 7.11958 4.12496 6.12501ZM23.4468 15.2816C23.3277 15.3691 23.1926 15.4323 23.049 15.4675C22.9055 15.5028 22.7564 15.5094 22.6104 15.4871C22.4643 15.4647 22.324 15.4137 22.1976 15.3371C22.0712 15.2605 21.9612 15.1598 21.8737 15.0406C21.2104 14.1387 20.3448 13.4051 19.3463 12.8987C18.3479 12.3923 17.2445 12.1273 16.125 12.125C15.8266 12.125 15.5404 12.0065 15.3295 11.7955C15.1185 11.5845 15 11.2984 15 11C15 10.7016 15.1185 10.4155 15.3295 10.2045C15.5404 9.99354 15.8266 9.87501 16.125 9.87501C16.658 9.87406 17.1846 9.7595 17.6699 9.53896C18.1551 9.31843 18.5878 8.99698 18.939 8.59606C19.2902 8.19514 19.5519 7.72395 19.7067 7.21391C19.8615 6.70387 19.9057 6.1667 19.8365 5.6382C19.7673 5.10971 19.5863 4.60203 19.3054 4.14903C19.0246 3.69602 18.6504 3.30809 18.2078 3.0111C17.7652 2.71411 17.2644 2.51488 16.7387 2.4267C16.213 2.33852 15.6746 2.3634 15.1593 2.4997C15.0154 2.54134 14.8646 2.55381 14.7158 2.53638C14.567 2.51896 14.4232 2.47199 14.2928 2.39823C14.1624 2.32446 14.0481 2.2254 13.9565 2.10685C13.8649 1.98829 13.7979 1.85264 13.7594 1.70784C13.7209 1.56304 13.7118 1.41202 13.7325 1.26364C13.7532 1.11526 13.8033 0.972502 13.8799 0.843752C13.9565 0.715002 14.0581 0.602851 14.1786 0.51388C14.2991 0.424909 14.4362 0.36091 14.5818 0.32564C15.8995 -0.0234859 17.2967 0.0864441 18.5435 0.637331C19.7903 1.18822 20.8124 2.14723 21.4414 3.35647C22.0705 4.56572 22.2691 5.95312 22.0045 7.29028C21.7398 8.62743 21.0278 9.83463 19.9856 10.7131C21.4569 11.3784 22.732 12.4116 23.6878 13.7131C23.863 13.9533 23.9361 14.2532 23.8909 14.5471C23.8458 14.841 23.6861 15.1051 23.4468 15.2816Z" fill="#94A3B8"/>
</svg>
