<svg width="21" height="21" viewBox="0 0 21 21" fill="none" xmlns="http://www.w3.org/2000/svg">
<path d="M10.375 0.875C7.78998 0.87773 5.31161 1.90584 3.48372 3.73372C1.65584 5.56161 0.62773 8.03998 0.625 10.625V18.5C0.625 18.9973 0.822544 19.4742 1.17417 19.8258C1.52581 20.1775 2.00272 20.375 2.5 20.375H10.375C12.9609 20.375 15.4408 19.3478 17.2693 17.5193C19.0978 15.6908 20.125 13.2109 20.125 10.625C20.125 8.03914 19.0978 5.55919 17.2693 3.73071C15.4408 1.90223 12.9609 0.875 10.375 0.875ZM10.375 18.125H2.875V10.625C2.875 9.14164 3.31487 7.69159 4.13898 6.45822C4.96309 5.22485 6.13443 4.26356 7.50487 3.6959C8.87532 3.12825 10.3833 2.97972 11.8382 3.26911C13.293 3.5585 14.6294 4.27281 15.6783 5.3217C16.7272 6.37059 17.4415 7.70697 17.7309 9.16182C18.0203 10.6167 17.8718 12.1247 17.3041 13.4951C16.7364 14.8656 15.7751 16.0369 14.5418 16.861C13.3084 17.6851 11.8584 18.125 10.375 18.125ZM9.625 11C9.625 11.2967 9.53703 11.5867 9.3722 11.8334C9.20738 12.08 8.97311 12.2723 8.69903 12.3858C8.42494 12.4994 8.12334 12.5291 7.83236 12.4712C7.54139 12.4133 7.27412 12.2704 7.06434 12.0607C6.85456 11.8509 6.7117 11.5836 6.65382 11.2926C6.59594 11.0017 6.62565 10.7001 6.73918 10.426C6.85271 10.1519 7.04497 9.91762 7.29165 9.7528C7.53832 9.58797 7.82833 9.5 8.125 9.5C8.52282 9.5 8.90436 9.65804 9.18566 9.93934C9.46696 10.2206 9.625 10.6022 9.625 11ZM14.125 11C14.125 11.2967 14.037 11.5867 13.8722 11.8334C13.7074 12.08 13.4731 12.2723 13.199 12.3858C12.9249 12.4994 12.6233 12.5291 12.3324 12.4712C12.0414 12.4133 11.7741 12.2704 11.5643 12.0607C11.3546 11.8509 11.2117 11.5836 11.1538 11.2926C11.0959 11.0017 11.1256 10.7001 11.2392 10.426C11.3527 10.1519 11.545 9.91762 11.7916 9.7528C12.0383 9.58797 12.3283 9.5 12.625 9.5C13.0228 9.5 13.4044 9.65804 13.6857 9.93934C13.967 10.2206 14.125 10.6022 14.125 11Z" fill="#94A3B8"/>
</svg>
