<svg width="20" height="20" viewBox="0 0 20 20" fill="none" xmlns="http://www.w3.org/2000/svg">
<path d="M1.5 0.671875H7.5C7.78594 0.671875 8.06051 0.785117 8.2627 0.987305C8.46488 1.18949 8.57812 1.46406 8.57812 1.75C8.57812 2.03594 8.46488 2.31051 8.2627 2.5127C8.06051 2.71488 7.78594 2.82812 7.5 2.82812H2.57812V17.1719H7.5C7.78594 17.1719 8.06051 17.2851 8.2627 17.4873C8.46488 17.6895 8.57812 17.9641 8.57812 18.25C8.57812 18.5359 8.46488 18.8105 8.2627 19.0127C8.06051 19.2149 7.78594 19.3281 7.5 19.3281H1.5C1.21406 19.3281 0.939492 19.2149 0.737305 19.0127C0.535117 18.8105 0.421875 18.5359 0.421875 18.25V1.75C0.421875 1.46406 0.535117 1.18949 0.737305 0.987305C0.939492 0.785117 1.21406 0.671875 1.5 0.671875ZM14.249 5.1709C14.5355 5.1709 14.8101 5.28475 15.0127 5.4873L18.7627 9.2373C18.8631 9.33753 18.9427 9.45681 18.9971 9.58789C19.0513 9.71889 19.0792 9.85918 19.0791 10.001C19.079 10.1427 19.0514 10.2832 18.9971 10.4141C18.9561 10.5125 18.9006 10.6046 18.833 10.6865L18.7617 10.7646L15.0117 14.5146C14.8092 14.7172 14.5345 14.8311 14.248 14.8311C13.9616 14.831 13.6869 14.7172 13.4844 14.5146C13.2818 14.3121 13.168 14.0374 13.168 13.751C13.168 13.4646 13.2819 13.1899 13.4844 12.9873L15.3145 11.1582L15.3945 11.0781H7.5C7.21406 11.0781 6.93949 10.9649 6.7373 10.7627C6.53512 10.5605 6.42188 10.2859 6.42188 10C6.42188 9.71406 6.53512 9.43949 6.7373 9.2373C6.93949 9.03512 7.21406 8.92188 7.5 8.92188H15.3945L15.3145 8.8418L13.4854 7.01465C13.2828 6.8121 13.169 6.53742 13.1689 6.25098C13.1689 5.96454 13.2828 5.68985 13.4854 5.4873C13.6879 5.28476 13.9626 5.17091 14.249 5.1709Z" fill="#475569" stroke="#475569" stroke-width="0.09375"/>
</svg>
