<svg width="22" height="22" viewBox="0 0 22 22" fill="none" xmlns="http://www.w3.org/2000/svg">
<path d="M11 6.12499C10.0358 6.12499 9.09329 6.41091 8.2916 6.94658C7.48991 7.48225 6.86507 8.24362 6.49609 9.13441C6.12712 10.0252 6.03058 11.0054 6.21868 11.9511C6.40678 12.8967 6.87108 13.7654 7.55286 14.4471C8.23464 15.1289 9.10328 15.5932 10.0489 15.7813C10.9946 15.9694 11.9748 15.8729 12.8656 15.5039C13.7564 15.1349 14.5177 14.5101 15.0534 13.7084C15.5891 12.9067 15.875 11.9642 15.875 11C15.8735 9.70752 15.3594 8.46841 14.4455 7.55449C13.5316 6.64057 12.2925 6.12648 11 6.12499ZM11 13.625C10.4808 13.625 9.97331 13.471 9.54164 13.1826C9.10996 12.8942 8.7735 12.4842 8.57482 12.0045C8.37614 11.5249 8.32416 10.9971 8.42545 10.4879C8.52673 9.97868 8.77674 9.51095 9.14385 9.14384C9.51096 8.77672 9.97869 8.52672 10.4879 8.42543C10.9971 8.32414 11.5249 8.37613 12.0046 8.57481C12.4842 8.77349 12.8942 9.10994 13.1826 9.54162C13.4711 9.9733 13.625 10.4808 13.625 11C13.625 11.6962 13.3484 12.3639 12.8562 12.8561C12.3639 13.3484 11.6962 13.625 11 13.625ZM21.6744 8.9778C21.6427 8.81934 21.5772 8.66958 21.4824 8.5387C21.3876 8.40783 21.2657 8.29891 21.125 8.21937L18.5197 6.73343L18.5094 3.79812C18.5088 3.63526 18.4729 3.47446 18.4041 3.32684C18.3353 3.17922 18.2353 3.0483 18.1109 2.94312C17.061 2.05481 15.8522 1.37371 14.5484 0.935929C14.3997 0.885764 14.2422 0.867272 14.0859 0.881642C13.9296 0.896011 13.778 0.942925 13.6409 1.01937L11 2.49405L8.35907 1.01843C8.22182 0.941567 8.06997 0.894345 7.91333 0.879812C7.75669 0.865278 7.59875 0.883757 7.44969 0.934054C6.14559 1.37366 4.93672 2.05667 3.88719 2.94687C3.76326 3.05193 3.66356 3.18259 3.59494 3.32986C3.52632 3.47713 3.49042 3.63752 3.48969 3.79999L3.47657 6.73812L0.875007 8.2203C0.734298 8.30015 0.612465 8.4094 0.517819 8.54061C0.423172 8.67182 0.357939 8.8219 0.326569 8.98062C0.0617165 10.3148 0.0617165 11.688 0.326569 13.0222C0.358188 13.1806 0.423536 13.3303 0.518171 13.4611C0.612806 13.592 0.734509 13.701 0.875007 13.7806L3.48313 15.2666L3.49344 18.2019C3.49401 18.3647 3.52993 18.5255 3.59872 18.6731C3.66752 18.8208 3.76754 18.9517 3.89188 19.0569C4.94178 19.9452 6.15065 20.6263 7.45438 21.0641C7.6031 21.1142 7.76067 21.1327 7.91696 21.1183C8.07325 21.104 8.2248 21.0571 8.36188 20.9806L11 19.5059L13.6381 20.9816C13.7754 21.0584 13.9272 21.1056 14.0839 21.1202C14.2405 21.1347 14.3985 21.1162 14.5475 21.0659C15.8516 20.6263 17.0605 19.9433 18.11 19.0531C18.2339 18.9481 18.3336 18.8174 18.4023 18.6701C18.4709 18.5229 18.5068 18.3625 18.5075 18.2L18.5206 15.2619L21.1278 13.7797C21.2685 13.6998 21.3904 13.5906 21.485 13.4594C21.5797 13.3282 21.6449 13.1781 21.6763 13.0194C21.9405 11.6851 21.9399 10.3119 21.6744 8.9778ZM19.5528 12.0884L17.0328 13.5209C16.8538 13.6224 16.7062 13.7713 16.6063 13.9512C16.5556 14.045 16.5022 14.1322 16.4469 14.2212C16.3358 14.3986 16.2764 14.6035 16.2753 14.8128L16.2622 17.6562C15.6557 18.1126 14.9915 18.4868 14.2869 18.7691L11.7416 17.345C11.5737 17.251 11.3846 17.2016 11.1922 17.2016H11.165C11.0581 17.2016 10.9494 17.2016 10.8425 17.2016C10.6415 17.1968 10.4428 17.2457 10.2669 17.3431L7.71876 18.7644C7.01297 18.4835 6.34724 18.1109 5.73876 17.6562L5.72844 14.8212C5.72758 14.6116 5.66815 14.4064 5.55688 14.2287C5.50251 14.1406 5.44813 14.0497 5.39751 13.9587C5.2975 13.7799 5.15026 13.632 4.97188 13.5312L2.45001 12.0903C2.35204 11.3674 2.35204 10.6345 2.45001 9.91155L4.97001 8.47905C5.14875 8.37758 5.29627 8.22908 5.39657 8.04968C5.44719 7.95593 5.50063 7.8678 5.55594 7.77874C5.66705 7.60135 5.72646 7.39649 5.72751 7.18718L5.73782 4.34374C6.34453 3.88866 7.00872 3.51574 7.71313 3.23468L10.2584 4.65874C10.4343 4.75738 10.6335 4.80662 10.835 4.80124C10.9419 4.80124 11.0506 4.80124 11.1575 4.80124C11.3585 4.806 11.5572 4.75714 11.7331 4.65968L14.2813 3.23562C14.987 3.51645 15.6528 3.88903 16.2613 4.34374L16.2716 7.17874C16.2724 7.38837 16.3319 7.59358 16.4431 7.77124C16.4975 7.85937 16.5519 7.9503 16.6025 8.04124C16.7025 8.22007 16.8498 8.36795 17.0281 8.46874L19.55 9.90593C19.6493 10.63 19.6502 11.3641 19.5528 12.0884Z" fill="#94A3B8"/>
</svg>
