<svg width="20" height="16" viewBox="0 0 20 16" fill="none" xmlns="http://www.w3.org/2000/svg">
<path d="M5.125 2C5.125 1.70163 5.24353 1.41548 5.45451 1.2045C5.66548 0.993526 5.95163 0.875 6.25 0.875H18.25C18.5484 0.875 18.8345 0.993526 19.0455 1.2045C19.2565 1.41548 19.375 1.70163 19.375 2C19.375 2.29837 19.2565 2.58452 19.0455 2.7955C18.8345 3.00647 18.5484 3.125 18.25 3.125H6.25C5.95163 3.125 5.66548 3.00647 5.45451 2.7955C5.24353 2.58452 5.125 2.29837 5.125 2ZM18.25 6.875H6.25C5.95163 6.875 5.66548 6.99353 5.45451 7.2045C5.24353 7.41548 5.125 7.70163 5.125 8C5.125 8.29837 5.24353 8.58452 5.45451 8.79549C5.66548 9.00647 5.95163 9.125 6.25 9.125H18.25C18.5484 9.125 18.8345 9.00647 19.0455 8.79549C19.2565 8.58452 19.375 8.29837 19.375 8C19.375 7.70163 19.2565 7.41548 19.0455 7.2045C18.8345 6.99353 18.5484 6.875 18.25 6.875ZM18.25 12.875H6.25C5.95163 12.875 5.66548 12.9935 5.45451 13.2045C5.24353 13.4155 5.125 13.7016 5.125 14C5.125 14.2984 5.24353 14.5845 5.45451 14.7955C5.66548 15.0065 5.95163 15.125 6.25 15.125H18.25C18.5484 15.125 18.8345 15.0065 19.0455 14.7955C19.2565 14.5845 19.375 14.2984 19.375 14C19.375 13.7016 19.2565 13.4155 19.0455 13.2045C18.8345 12.9935 18.5484 12.875 18.25 12.875ZM2.125 6.5C1.82833 6.5 1.53832 6.58797 1.29165 6.7528C1.04497 6.91762 0.852713 7.15189 0.739181 7.42597C0.62565 7.70006 0.595945 8.00166 0.653823 8.29264C0.711701 8.58361 0.854562 8.85088 1.06434 9.06066C1.27412 9.27044 1.54139 9.4133 1.83237 9.47118C2.12334 9.52906 2.42494 9.49935 2.69903 9.38582C2.97312 9.27229 3.20738 9.08003 3.37221 8.83336C3.53703 8.58668 3.625 8.29667 3.625 8C3.625 7.60218 3.46697 7.22064 3.18566 6.93934C2.90436 6.65804 2.52283 6.5 2.125 6.5ZM2.125 0.5C1.82833 0.5 1.53832 0.587974 1.29165 0.752796C1.04497 0.917618 0.852713 1.15189 0.739181 1.42597C0.62565 1.70006 0.595945 2.00166 0.653823 2.29264C0.711701 2.58361 0.854562 2.85088 1.06434 3.06066C1.27412 3.27044 1.54139 3.4133 1.83237 3.47118C2.12334 3.52906 2.42494 3.49935 2.69903 3.38582C2.97312 3.27229 3.20738 3.08003 3.37221 2.83336C3.53703 2.58668 3.625 2.29667 3.625 2C3.625 1.60218 3.46697 1.22064 3.18566 0.93934C2.90436 0.658035 2.52283 0.5 2.125 0.5ZM2.125 12.5C1.82833 12.5 1.53832 12.588 1.29165 12.7528C1.04497 12.9176 0.852713 13.1519 0.739181 13.426C0.62565 13.7001 0.595945 14.0017 0.653823 14.2926C0.711701 14.5836 0.854562 14.8509 1.06434 15.0607C1.27412 15.2704 1.54139 15.4133 1.83237 15.4712C2.12334 15.5291 2.42494 15.4994 2.69903 15.3858C2.97312 15.2723 3.20738 15.08 3.37221 14.8334C3.53703 14.5867 3.625 14.2967 3.625 14C3.625 13.6022 3.46697 13.2206 3.18566 12.9393C2.90436 12.658 2.52283 12.5 2.125 12.5Z" fill="#94A3B8"/>
</svg>
