<svg width="18" height="18" viewBox="0 0 18 18" fill="none" xmlns="http://www.w3.org/2000/svg">
<path d="M15.875 5.31251H13.8484C14.1384 4.8907 14.2996 4.39375 14.3125 3.88204C14.3241 3.49222 14.2558 3.10415 14.1119 2.74167C13.968 2.3792 13.7516 2.04996 13.4758 1.7742C13.2 1.49843 12.8708 1.28196 12.5083 1.13808C12.1459 0.994195 11.7578 0.925941 11.368 0.937507C11.0079 0.945191 10.6533 1.02723 10.3265 1.17848C9.99968 1.32973 9.70764 1.54692 9.46875 1.81641C9.29255 2.01741 9.13561 2.23451 9 2.46485C8.86439 2.23451 8.70745 2.01741 8.53125 1.81641C8.29236 1.54692 8.00032 1.32973 7.67349 1.17848C7.34666 1.02723 6.99208 0.945191 6.63203 0.937507C6.24221 0.925941 5.85414 0.994195 5.49167 1.13808C5.12919 1.28196 4.79996 1.49843 4.52419 1.7742C4.24843 2.04996 4.03195 2.3792 3.88807 2.74167C3.74419 3.10415 3.67593 3.49222 3.6875 3.88204C3.70036 4.39375 3.86158 4.8907 4.15156 5.31251H2.125C1.7106 5.31251 1.31317 5.47713 1.02015 5.77015C0.72712 6.06318 0.5625 6.46061 0.5625 6.87501V9.37501C0.562427 9.73521 0.686807 10.0844 0.914592 10.3634C1.14238 10.6425 1.45957 10.8342 1.8125 10.9063V15.625C1.8125 16.0394 1.97712 16.4368 2.27015 16.7299C2.56317 17.0229 2.9606 17.1875 3.375 17.1875H14.625C15.0394 17.1875 15.4368 17.0229 15.7299 16.7299C16.0229 16.4368 16.1875 16.0394 16.1875 15.625V10.9063C16.5404 10.8342 16.8576 10.6425 17.0854 10.3634C17.3132 10.0844 17.4376 9.73521 17.4375 9.37501V6.87501C17.4375 6.46061 17.2729 6.06318 16.9799 5.77015C16.6868 5.47713 16.2894 5.31251 15.875 5.31251ZM15.5625 9.06251H9.9375V7.18751H15.5625V9.06251ZM10.875 3.06016C10.9442 2.98341 11.0284 2.92179 11.1225 2.87917C11.2167 2.83655 11.3186 2.81385 11.4219 2.81251H11.4492C11.5814 2.81213 11.7124 2.83835 11.8342 2.88961C11.9561 2.94086 12.0664 3.0161 12.1586 3.11085C12.2508 3.20561 12.323 3.31794 12.3709 3.44116C12.4188 3.56438 12.4415 3.69598 12.4375 3.82813C12.4362 3.93144 12.4135 4.03335 12.3708 4.12746C12.3282 4.22157 12.2666 4.30585 12.1898 4.37501C11.6508 4.85313 10.7641 5.09844 10.0312 5.21563C10.1484 4.48594 10.3938 3.59923 10.875 3.06016ZM5.85156 3.10157C6.03701 2.91811 6.2868 2.81438 6.54766 2.81251H6.57812C6.68143 2.81385 6.78334 2.83655 6.87745 2.87917C6.97157 2.92179 7.05585 2.98341 7.125 3.06016C7.60312 3.59923 7.84844 4.48516 7.96484 5.21719C7.23828 5.09923 6.34375 4.85391 5.81016 4.37501C5.7334 4.30585 5.67178 4.22157 5.62916 4.12746C5.58654 4.03335 5.56384 3.93144 5.5625 3.82813C5.55904 3.69377 5.58288 3.56011 5.63256 3.43522C5.68225 3.31034 5.75675 3.19683 5.85156 3.10157ZM2.4375 7.18751H8.0625V9.06251H2.4375V7.18751ZM3.6875 10.9375H8.0625V15.3125H3.6875V10.9375ZM9.9375 15.3125V10.9375H14.3125V15.3125H9.9375Z" fill="#4F46E5"/>
</svg>
