<svg width="20" height="19" viewBox="0 0 20 19" fill="none" xmlns="http://www.w3.org/2000/svg">
<path d="M19.5156 5.67891L10.4531 0.678912C10.3144 0.602311 10.1585 0.562134 9.99999 0.562134C9.84151 0.562134 9.68561 0.602311 9.54687 0.678912L0.484367 5.67891C0.337835 5.75999 0.215694 5.87883 0.130642 6.02309C0.04559 6.16735 0.000732422 6.33176 0.000732422 6.49922C0.000732422 6.66669 0.04559 6.8311 0.130642 6.97536C0.215694 7.11962 0.337835 7.23846 0.484367 7.31954L2.18749 8.25704V11.9883C2.18688 12.3724 2.32854 12.7431 2.58515 13.0289C3.64296 14.2109 6.01562 16.1875 9.99999 16.1875C11.0581 16.1932 12.1113 16.0418 13.125 15.7383V17.75C13.125 17.9986 13.2238 18.2371 13.3996 18.4129C13.5754 18.5887 13.8139 18.6875 14.0625 18.6875C14.3111 18.6875 14.5496 18.5887 14.7254 18.4129C14.9012 18.2371 15 17.9986 15 17.75V14.9469C15.9054 14.4467 16.7215 13.7997 17.4148 13.032C17.6714 12.7462 17.8131 12.3755 17.8125 11.9914V8.26016L19.5156 7.32266C19.6621 7.24159 19.7843 7.12274 19.8693 6.97848C19.9544 6.83422 19.9992 6.66981 19.9992 6.50235C19.9992 6.33488 19.9544 6.17047 19.8693 6.02621C19.7843 5.88196 19.6621 5.76311 19.5156 5.68204V5.67891ZM9.99999 2.5711L17.1219 6.50001L14.5312 7.92969C14.5264 7.92684 14.5217 7.92371 14.5172 7.92032L10.4547 5.67891C10.2378 5.56681 9.98571 5.54375 9.75207 5.61463C9.51843 5.68551 9.32166 5.84474 9.20361 6.05845C9.08556 6.27217 9.05553 6.52351 9.11993 6.75902C9.18433 6.99453 9.33806 7.19562 9.54843 7.31954L12.5953 8.99844L9.99999 10.4297L2.87812 6.50001L9.99999 2.5711ZM9.99999 14.3125C6.84218 14.3125 4.94921 12.8227 4.06249 11.8695V9.29141L9.54687 12.318C9.68561 12.3946 9.84151 12.4348 9.99999 12.4348C10.1585 12.4348 10.3144 12.3946 10.4531 12.318L13.125 10.8469V13.7555C12.1267 14.1328 11.0671 14.3217 9.99999 14.3125ZM15.9375 11.8695C15.65 12.1776 15.3363 12.4602 15 12.7141V9.81172L15.9375 9.29454V11.8695Z" fill="#4F46E5"/>
</svg>
