<svg width="18" height="18" viewBox="0 0 18 18" fill="none" xmlns="http://www.w3.org/2000/svg">
<path d="M0.936749 8.49923C1.03517 8.5733 1.14722 8.62725 1.2665 8.65799C1.38579 8.68874 1.50996 8.69568 1.63192 8.67841C1.75389 8.66114 1.87125 8.62001 1.97731 8.55736C2.08337 8.49471 2.17604 8.41177 2.25003 8.31329C2.59932 7.84741 3.05229 7.46926 3.57308 7.20881C4.09386 6.94836 4.66814 6.81277 5.25042 6.81277C5.8327 6.81277 6.40698 6.94836 6.92776 7.20881C7.44855 7.46926 7.90153 7.84741 8.25081 8.31329C8.40011 8.51208 8.62226 8.64343 8.8684 8.67844C9.11453 8.71346 9.3645 8.64928 9.56331 8.50001C9.63361 8.44665 9.69618 8.38381 9.74925 8.31329C10.0985 7.84741 10.5515 7.46926 11.0723 7.20881C11.5931 6.94836 12.1674 6.81277 12.7496 6.81277C13.3319 6.81277 13.9062 6.94836 14.427 7.20881C14.9478 7.46926 15.4007 7.84741 15.75 8.31329C15.8233 8.4135 15.9157 8.49817 16.0219 8.56239C16.1282 8.6266 16.2461 8.66908 16.3689 8.68735C16.4917 8.70563 16.6168 8.69934 16.7372 8.66885C16.8575 8.63836 16.9706 8.58428 17.0698 8.50974C17.1691 8.4352 17.2526 8.34169 17.3154 8.23464C17.3782 8.12759 17.4192 8.00912 17.4359 7.88612C17.4526 7.76312 17.4447 7.63802 17.4126 7.5181C17.3806 7.39817 17.3251 7.2858 17.2492 7.18751C16.7277 6.48924 16.0511 5.92171 15.2727 5.5297C15.6133 5.06382 15.8183 4.51272 15.8648 3.93748C15.9114 3.36225 15.7978 2.78535 15.5366 2.27075C15.2753 1.75614 14.8767 1.32393 14.3848 1.02202C13.893 0.720104 13.3271 0.56029 12.75 0.56029C12.1729 0.56029 11.6071 0.720104 11.1152 1.02202C10.6234 1.32393 10.2247 1.75614 9.96351 2.27075C9.70228 2.78535 9.58865 3.36225 9.63522 3.93748C9.6818 4.51272 9.88675 5.06382 10.2274 5.5297C9.78251 5.7528 9.36969 6.03475 9.00003 6.36798C8.63042 6.03448 8.2176 5.75226 7.77269 5.52891C8.11331 5.06304 8.31826 4.51194 8.36484 3.9367C8.41141 3.36147 8.29778 2.78457 8.03655 2.26997C7.77532 1.75536 7.37668 1.32315 6.88484 1.02123C6.39299 0.719323 5.82715 0.559509 5.25003 0.559509C4.67291 0.559509 4.10707 0.719323 3.61522 1.02123C3.12338 1.32315 2.72474 1.75536 2.46351 2.26997C2.20228 2.78457 2.08865 3.36147 2.13522 3.9367C2.1818 4.51194 2.38675 5.06304 2.72737 5.52891C1.94899 5.92093 1.27234 6.48846 0.750811 7.18673C0.60146 7.38545 0.537148 7.63535 0.572016 7.88148C0.606884 8.12761 0.738079 8.34981 0.936749 8.49923ZM12.75 2.43751C12.9973 2.43751 13.2389 2.51082 13.4445 2.64817C13.6501 2.78552 13.8103 2.98075 13.9049 3.20915C13.9995 3.43756 14.0242 3.68889 13.976 3.93137C13.9278 4.17385 13.8087 4.39658 13.6339 4.57139C13.4591 4.74621 13.2364 4.86526 12.9939 4.91349C12.7514 4.96172 12.5001 4.93697 12.2717 4.84236C12.0433 4.74775 11.848 4.58753 11.7107 4.38197C11.5733 4.17641 11.5 3.93473 11.5 3.68751C11.5 3.35599 11.6317 3.03805 11.8661 2.80362C12.1006 2.5692 12.4185 2.43751 12.75 2.43751ZM5.25003 2.43751C5.49726 2.43751 5.73893 2.51082 5.94449 2.64817C6.15005 2.78552 6.31027 2.98075 6.40488 3.20915C6.49949 3.43756 6.52424 3.68889 6.47601 3.93137C6.42778 4.17385 6.30873 4.39658 6.13391 4.57139C5.9591 4.74621 5.73637 4.86526 5.49389 4.91349C5.25142 4.96172 5.00008 4.93697 4.77168 4.84236C4.54327 4.74775 4.34805 4.58753 4.21069 4.38197C4.07334 4.17641 4.00003 3.93473 4.00003 3.68751C4.00003 3.35599 4.13173 3.03805 4.36615 2.80362C4.60057 2.5692 4.91851 2.43751 5.25003 2.43751ZM15.2727 14.2789C15.6133 13.813 15.8183 13.2619 15.8648 12.6867C15.9114 12.1115 15.7978 11.5346 15.5366 11.02C15.2753 10.5054 14.8767 10.0731 14.3848 9.77123C13.893 9.46932 13.3271 9.30951 12.75 9.30951C12.1729 9.30951 11.6071 9.46932 11.1152 9.77123C10.6234 10.0731 10.2247 10.5054 9.96351 11.02C9.70228 11.5346 9.58865 12.1115 9.63522 12.6867C9.6818 13.2619 9.88675 13.813 10.2274 14.2789C9.78265 14.5023 9.36987 14.7842 9.00003 15.1172C8.63019 14.7842 8.21741 14.5023 7.77269 14.2789C8.11331 13.813 8.31826 13.2619 8.36484 12.6867C8.41141 12.1115 8.29778 11.5346 8.03655 11.02C7.77532 10.5054 7.37668 10.0731 6.88484 9.77123C6.39299 9.46932 5.82715 9.30951 5.25003 9.30951C4.67291 9.30951 4.10707 9.46932 3.61522 9.77123C3.12338 10.0731 2.72474 10.5054 2.46351 11.02C2.20228 11.5346 2.08865 12.1115 2.13522 12.6867C2.1818 13.2619 2.38675 13.813 2.72737 14.2789C1.94899 14.6709 1.27234 15.2385 0.750811 15.9367C0.60142 16.1355 0.537124 16.3855 0.572067 16.6318C0.60701 16.878 0.738331 17.1002 0.93714 17.2496C1.13595 17.399 1.38596 17.4633 1.63217 17.4284C1.87839 17.3934 2.10064 17.2621 2.25003 17.0633C2.59932 16.5974 3.05229 16.2193 3.57308 15.9588C4.09386 15.6984 4.66814 15.5628 5.25042 15.5628C5.8327 15.5628 6.40698 15.6984 6.92776 15.9588C7.44855 16.2193 7.90153 16.5974 8.25081 17.0633C8.40011 17.2621 8.62226 17.3934 8.8684 17.4284C9.11453 17.4635 9.3645 17.3993 9.56331 17.25C9.63361 17.1966 9.69618 17.1338 9.74925 17.0633C10.0985 16.5974 10.5515 16.2193 11.0723 15.9588C11.5931 15.6984 12.1674 15.5628 12.7496 15.5628C13.3319 15.5628 13.9062 15.6984 14.427 15.9588C14.9478 16.2193 15.4007 16.5974 15.75 17.0633C15.8233 17.1635 15.9157 17.2482 16.0219 17.3124C16.1282 17.3766 16.2461 17.4191 16.3689 17.4374C16.4917 17.4556 16.6168 17.4493 16.7372 17.4188C16.8575 17.3884 16.9706 17.3343 17.0698 17.2597C17.1691 17.1852 17.2526 17.0917 17.3154 16.9846C17.3782 16.8776 17.4192 16.7591 17.4359 16.6361C17.4526 16.5131 17.4447 16.388 17.4126 16.2681C17.3806 16.1482 17.3251 16.0358 17.2492 15.9375C16.728 15.2388 16.0513 14.6709 15.2727 14.2789ZM5.25003 11.1875C5.49726 11.1875 5.73893 11.2608 5.94449 11.3982C6.15005 11.5355 6.31027 11.7307 6.40488 11.9592C6.49949 12.1876 6.52424 12.4389 6.47601 12.6814C6.42778 12.9238 6.30873 13.1466 6.13391 13.3214C5.9591 13.4962 5.73637 13.6153 5.49389 13.6635C5.25142 13.7117 5.00008 13.687 4.77168 13.5924C4.54327 13.4977 4.34805 13.3375 4.21069 13.132C4.07334 12.9264 4.00003 12.6847 4.00003 12.4375C4.00003 12.106 4.13173 11.788 4.36615 11.5536C4.60057 11.3192 4.91851 11.1875 5.25003 11.1875ZM12.75 11.1875C12.9973 11.1875 13.2389 11.2608 13.4445 11.3982C13.6501 11.5355 13.8103 11.7307 13.9049 11.9592C13.9995 12.1876 14.0242 12.4389 13.976 12.6814C13.9278 12.9238 13.8087 13.1466 13.6339 13.3214C13.4591 13.4962 13.2364 13.6153 12.9939 13.6635C12.7514 13.7117 12.5001 13.687 12.2717 13.5924C12.0433 13.4977 11.848 13.3375 11.7107 13.132C11.5733 12.9264 11.5 12.6847 11.5 12.4375C11.5 12.106 11.6317 11.788 11.8661 11.5536C12.1006 11.3192 12.4185 11.1875 12.75 11.1875Z" fill="#4F46E5"/>
</svg>
