<svg width="21" height="21" viewBox="0 0 21 21" fill="none" xmlns="http://www.w3.org/2000/svg">
<path d="M10.375 0.921875C12.9484 0.921875 15.4166 1.94398 17.2363 3.76367C19.056 5.58336 20.0781 8.05157 20.0781 10.625C20.0781 13.1984 19.056 15.6666 17.2363 17.4863C15.4166 19.306 12.9484 20.3281 10.375 20.3281H2.5C2.01515 20.3281 1.54987 20.1358 1.20703 19.793C0.864191 19.4501 0.671875 18.9848 0.671875 18.5V10.625L0.68457 10.1445C0.805775 7.74697 1.81108 5.47212 3.5166 3.7666C5.22212 2.06108 7.49697 1.05578 9.89453 0.93457L10.375 0.921875ZM11.8477 3.22266C10.3838 2.93149 8.86621 3.08128 7.4873 3.65234C6.10829 4.22355 4.92887 5.19154 4.09961 6.43262C3.27056 7.67359 2.82812 9.13256 2.82812 10.625V18.1719H10.375C11.8674 18.1719 13.3264 17.7294 14.5674 16.9004C15.8085 16.0711 16.7765 14.8917 17.3477 13.5127C17.9187 12.1338 18.0685 10.6162 17.7773 9.15234C17.4861 7.68848 16.7673 6.34348 15.7119 5.28809C14.6565 4.23269 13.3115 3.51388 11.8477 3.22266ZM8.125 9.54688C8.51039 9.54688 8.87983 9.70014 9.15234 9.97266C9.42486 10.2452 9.57812 10.6146 9.57812 11C9.57812 11.2874 9.49268 11.5687 9.33301 11.8076C9.17335 12.0464 8.94607 12.2328 8.68066 12.3428C8.41532 12.4526 8.12345 12.4808 7.8418 12.4248C7.55992 12.3687 7.30088 12.2306 7.09766 12.0273C6.89443 11.8241 6.75626 11.5651 6.7002 11.2832C6.64421 11.0015 6.67242 10.7097 6.78223 10.4443C6.89216 10.1789 7.07857 9.95165 7.31738 9.79199C7.55635 9.63232 7.8376 9.54688 8.125 9.54688ZM12.625 9.54688C13.0104 9.54688 13.3798 9.70014 13.6523 9.97266C13.9249 10.2452 14.0781 10.6146 14.0781 11C14.0781 11.2874 13.9927 11.5687 13.833 11.8076C13.6733 12.0464 13.4461 12.2328 13.1807 12.3428C12.9153 12.4526 12.6235 12.4808 12.3418 12.4248C12.0599 12.3687 11.8009 12.2306 11.5977 12.0273C11.3944 11.8241 11.2563 11.5651 11.2002 11.2832C11.1442 11.0015 11.1724 10.7097 11.2822 10.4443C11.3922 10.1789 11.5786 9.95165 11.8174 9.79199C12.0563 9.63232 12.3376 9.54688 12.625 9.54688Z" fill="#475569" stroke="#475569" stroke-width="0.09375"/>
</svg>
