<svg width="17" height="17" viewBox="0 0 17 17" fill="none" xmlns="http://www.w3.org/2000/svg">
<path d="M16.4665 9.89062C16.3463 9.77011 16.1955 9.68463 16.0303 9.64334C15.8651 9.60205 15.6918 9.60651 15.529 9.65625C14.3916 9.99962 13.1824 10.028 12.0301 9.73847C10.8778 9.4489 9.82565 8.8522 8.98569 8.01192C8.14573 7.17164 7.54943 6.11926 7.26031 4.96687C6.97118 3.81448 7.00006 2.60524 7.34386 1.46797C7.39402 1.30508 7.39882 1.1316 7.35775 0.966184C7.31669 0.800771 7.23131 0.649681 7.11079 0.529165C6.99027 0.408649 6.83918 0.323266 6.67377 0.282199C6.50836 0.241133 6.33488 0.245935 6.17199 0.296091C4.46136 0.821869 2.96018 1.87387 1.88214 3.30234C0.939413 4.55538 0.364514 6.04634 0.221956 7.60792C0.0793989 9.16951 0.374824 10.7399 1.07508 12.1429C1.77534 13.546 2.85272 14.7261 4.18634 15.5509C5.51996 16.3757 7.05704 16.8126 8.62511 16.8125C10.4559 16.8179 12.2378 16.2226 13.6978 15.118C15.1255 14.0389 16.1764 12.5368 16.7009 10.8258C16.7502 10.6633 16.7544 10.4905 16.7131 10.3258C16.6718 10.1611 16.5866 10.0107 16.4665 9.89062ZM12.5696 13.6203C11.306 14.5716 9.74123 15.0345 8.16339 14.9238C6.58555 14.8131 5.10077 14.1362 3.98233 13.0178C2.86388 11.8993 2.18702 10.4146 2.07631 8.83672C1.9656 7.25888 2.4285 5.69414 3.3798 4.43047C3.88037 3.76833 4.50074 3.206 5.20871 2.77265C5.19464 2.97265 5.18761 3.17344 5.18761 3.375C5.19009 5.612 6.07984 7.75667 7.66164 9.33847C9.24344 10.9203 11.3881 11.81 13.6251 11.8125C13.8267 11.8125 14.0275 11.8055 14.2275 11.7914C13.7943 12.4995 13.232 13.1199 12.5696 13.6203Z" fill="#4F46E5"/>
</svg>
