<svg width="16" height="17" viewBox="0 0 16 17" fill="none" xmlns="http://www.w3.org/2000/svg">
<rect x="2" y="5" width="12" height="7" fill="#94A3B8"/>
<rect x="3" y="3" width="10" height="5" fill="#94A3B8"/>
<rect x="4" y="2" width="7" height="2" fill="#94A3B8"/>
<rect x="5" y="1" width="5" height="2" fill="#94A3B8"/>
<path d="M15.4127 11.4008C14.7346 10.2344 14.3744 8.56016 14.3744 6.5625C14.3744 4.82202 13.683 3.15282 12.4523 1.92211C11.2216 0.691404 9.55239 0 7.81191 0C6.07143 0 4.40223 0.691404 3.17152 1.92211C1.94082 3.15282 1.24941 4.82202 1.24941 6.5625C1.24941 8.56094 0.890818 10.2344 0.212693 11.4008C0.0743187 11.6387 0.000969456 11.9088 9.54425e-06 12.184C-0.000950367 12.4593 0.0705128 12.7299 0.207224 12.9688C0.34307 13.2077 0.540243 13.4062 0.778386 13.5435C1.01653 13.6808 1.28701 13.7521 1.56191 13.75H14.0619C14.3364 13.7517 14.6064 13.6802 14.8441 13.5429C15.0818 13.4056 15.2786 13.2074 15.4143 12.9688C15.5516 12.7302 15.6237 12.4598 15.6234 12.1846C15.6231 11.9093 15.5505 11.639 15.4127 11.4008ZM2.08222 11.875C2.77363 10.4688 3.12441 8.68281 3.12441 6.5625C3.12441 5.3193 3.61827 4.12701 4.49735 3.24794C5.37642 2.36886 6.56871 1.875 7.81191 1.875C9.05511 1.875 10.2474 2.36886 11.1265 3.24794C12.0055 4.12701 12.4994 5.3193 12.4994 6.5625C12.4994 8.68203 12.8494 10.4688 13.5408 11.875H2.08222ZM11.2494 15.9375C11.2494 16.1861 11.1506 16.4246 10.9748 16.6004C10.799 16.7762 10.5606 16.875 10.3119 16.875H5.31191C5.06327 16.875 4.82481 16.7762 4.649 16.6004C4.47318 16.4246 4.37441 16.1861 4.37441 15.9375C4.37441 15.6889 4.47318 15.4504 4.649 15.2746C4.82481 15.0988 5.06327 15 5.31191 15H10.3119C10.5606 15 10.799 15.0988 10.9748 15.2746C11.1506 15.4504 11.2494 15.6889 11.2494 15.9375Z" fill="#94A3B8"/>
</svg>
