<svg width="20" height="22" viewBox="0 0 20 22" fill="none" xmlns="http://www.w3.org/2000/svg">
<path d="M6.99976 18.9219H12.9998C13.2856 18.9219 13.5603 19.0352 13.7625 19.2373C13.9646 19.4395 14.0779 19.7141 14.0779 20C14.0779 20.2859 13.9646 20.5605 13.7625 20.7627C13.5603 20.9648 13.2856 21.0781 12.9998 21.0781H6.99976C6.71408 21.0781 6.44013 20.9646 6.23804 20.7627C6.03585 20.5605 5.92163 20.2859 5.92163 20C5.92163 19.7141 6.03585 19.4395 6.23804 19.2373C6.44013 19.0354 6.71408 18.9219 6.99976 18.9219ZM9.99976 0.921875C12.0758 0.921875 14.0669 1.74687 15.5349 3.21484C17.003 4.6829 17.8279 6.67385 17.8279 8.75C17.8279 11.1517 18.2614 13.1696 19.0808 14.5791C19.242 14.8578 19.3265 15.1742 19.3269 15.4961C19.3272 15.8181 19.2425 16.135 19.0818 16.4141C18.9231 16.6932 18.6928 16.9253 18.4148 17.0859C18.137 17.2464 17.8215 17.33 17.5007 17.3281H2.49976C2.17822 17.3306 1.86131 17.2476 1.58276 17.0869C1.30431 16.9263 1.07365 16.6935 0.914795 16.4141C0.754931 16.1346 0.6715 15.818 0.672607 15.4961C0.673731 15.1741 0.759717 14.8575 0.921631 14.5791C1.74094 13.1696 2.17163 11.1525 2.17163 8.75C2.17163 6.67392 2.99663 4.68289 4.4646 3.21484C5.93259 1.74685 7.92371 0.921947 9.99976 0.921875ZM9.99976 3.07812C8.49558 3.0782 7.05263 3.67564 5.98901 4.73926C4.92542 5.80293 4.32788 7.24579 4.32788 8.75C4.32788 11.2896 3.90837 13.4253 3.08276 15.1045L3.04956 15.1719H16.95L16.9167 15.1045C16.0911 13.4253 15.6716 11.2887 15.6716 8.75C15.6716 7.24573 15.0742 5.80294 14.0105 4.73926C12.9468 3.67566 11.504 3.07812 9.99976 3.07812Z" fill="#475569" stroke="#475569" stroke-width="0.09375"/>
</svg>
