<svg width="12" height="12" viewBox="0 0 12 12" fill="none" xmlns="http://www.w3.org/2000/svg">
<path d="M11.9375 1V9.125C11.9375 9.37364 11.8387 9.6121 11.6629 9.78791C11.4871 9.96373 11.2486 10.0625 11 10.0625C10.7513 10.0625 10.5129 9.96373 10.3371 9.78791C10.1612 9.6121 10.0625 9.37364 10.0625 9.125V3.26563L1.66325 11.6633C1.48713 11.8394 1.24826 11.9383 0.999185 11.9383C0.750113 11.9383 0.511243 11.8394 0.335122 11.6633C0.159002 11.4872 0.0600586 11.2483 0.0600586 10.9992C0.0600586 10.7501 0.159002 10.5113 0.335122 10.3352L8.73434 1.9375H2.87497C2.62633 1.9375 2.38787 1.83873 2.21205 1.66291C2.03624 1.4871 1.93747 1.24864 1.93747 1C1.93747 0.75136 2.03624 0.512903 2.21205 0.337087C2.38787 0.161272 2.62633 0.0625 2.87497 0.0625H11C11.2486 0.0625 11.4871 0.161272 11.6629 0.337087C11.8387 0.512903 11.9375 0.75136 11.9375 1Z" fill="#4F46E5"/>
</svg>
