<svg width="20" height="16" viewBox="0 0 20 16" fill="none" xmlns="http://www.w3.org/2000/svg">
<path d="M15.351 9.83672C15.5271 10.0128 15.626 10.2517 15.626 10.5008C15.626 10.7499 15.5271 10.9887 15.351 11.1648C15.1748 11.341 14.936 11.4399 14.6869 11.4399C14.4378 11.4399 14.199 11.341 14.0228 11.1648L13.1252 10.2656V14.25C13.1252 14.4986 13.0264 14.7371 12.8506 14.9129C12.6748 15.0887 12.4363 15.1875 12.1877 15.1875C11.939 15.1875 11.7006 15.0887 11.5248 14.9129C11.349 14.7371 11.2502 14.4986 11.2502 14.25V10.2656L10.351 11.1656C10.1748 11.3417 9.93597 11.4407 9.6869 11.4407C9.43782 11.4407 9.19895 11.3417 9.02283 11.1656C8.84671 10.9895 8.74777 10.7506 8.74777 10.5016C8.74777 10.2525 8.84671 10.0136 9.02283 9.8375L11.5228 7.3375C11.6099 7.2501 11.7134 7.18075 11.8274 7.13344C11.9413 7.08612 12.0635 7.06176 12.1869 7.06176C12.3103 7.06176 12.4325 7.08612 12.5464 7.13344C12.6604 7.18075 12.7639 7.2501 12.851 7.3375L15.351 9.83672ZM12.5002 0.8125C11.2026 0.813123 9.92941 1.16468 8.81538 1.82994C7.70135 2.49519 6.78799 3.44937 6.17205 4.59141C5.45472 4.51627 4.72961 4.588 4.04089 4.8022C3.35218 5.01641 2.7143 5.36861 2.16613 5.83734C1.61795 6.30608 1.17096 6.88152 0.852405 7.52862C0.533846 8.17571 0.350389 8.88089 0.313214 9.60118C0.276039 10.3215 0.385924 11.0418 0.636174 11.7183C0.886423 12.3947 1.27179 13.0131 1.7688 13.5358C2.26581 14.0585 2.86404 14.4745 3.52704 14.7584C4.19004 15.0424 4.90392 15.1884 5.62518 15.1875H7.81268C8.06132 15.1875 8.29978 15.0887 8.47559 14.9129C8.65141 14.7371 8.75018 14.4986 8.75018 14.25C8.75018 14.0014 8.65141 13.7629 8.47559 13.5871C8.29978 13.4113 8.06132 13.3125 7.81268 13.3125H5.62518C4.72941 13.307 3.87116 12.9521 3.23319 12.3232C2.59521 11.6944 2.2279 10.8414 2.20947 9.94579C2.19104 9.0502 2.52294 8.18278 3.13451 7.52824C3.74607 6.8737 4.58899 6.48375 5.48377 6.44141C5.36989 6.95311 5.31251 7.47577 5.31268 8C5.31268 8.24864 5.41145 8.4871 5.58727 8.66291C5.76308 8.83873 6.00154 8.9375 6.25018 8.9375C6.49882 8.9375 6.73728 8.83873 6.91309 8.66291C7.08891 8.4871 7.18768 8.24864 7.18768 8C7.18832 7.23149 7.3557 6.47228 7.67825 5.77474C8.0008 5.0772 8.47085 4.45794 9.05596 3.9597C9.64108 3.46146 10.3273 3.0961 11.0674 2.88883C11.8074 2.68156 12.5836 2.63731 13.3424 2.75914C14.1011 2.88097 14.8245 3.16597 15.4624 3.59449C16.1004 4.02301 16.6377 4.58483 17.0375 5.2412C17.4372 5.89756 17.6898 6.63284 17.7778 7.39629C17.8657 8.15975 17.787 8.9332 17.5471 9.66328C17.5085 9.78024 17.4934 9.90364 17.5026 10.0264C17.5118 10.1492 17.545 10.269 17.6005 10.379C17.6559 10.4889 17.7325 10.5869 17.8258 10.6672C17.9191 10.7476 18.0274 10.8087 18.1443 10.8473C18.2613 10.8858 18.3847 10.9009 18.5075 10.8917C18.6303 10.8826 18.7501 10.8493 18.86 10.7938C18.97 10.7384 19.0679 10.6618 19.1482 10.5685C19.2286 10.4752 19.2898 10.367 19.3283 10.25C19.6831 9.17017 19.777 8.02161 19.6022 6.89849C19.4274 5.77538 18.9888 4.70969 18.3226 3.7888C17.6563 2.86791 16.7813 2.11805 15.7692 1.60069C14.7571 1.08334 13.6368 0.813227 12.5002 0.8125Z" fill="#475569"/>
</svg>
