<svg width="26" height="22" viewBox="0 0 26 22" fill="none" xmlns="http://www.w3.org/2000/svg">
<path d="M18.4678 1.375C20.0008 1.37677 21.4707 1.98632 22.5547 3.07031C23.6387 4.15431 24.2482 5.62423 24.25 7.15723C24.2495 10.517 21.7235 13.7209 18.8545 16.2334C16.1857 18.5706 13.4559 20.1025 13 20.3506C12.5441 20.1025 9.81429 18.5706 7.14551 16.2334C4.27653 13.7209 1.75049 10.517 1.75 7.15723C1.75177 5.62423 2.36132 4.15431 3.44531 3.07031C4.52908 1.98655 5.99861 1.37703 7.53125 1.375C9.49761 1.375 11.1694 2.21605 12.2002 3.58887L13 4.65332L13.7998 3.58887C14.8304 2.21627 16.5018 1.37528 18.4678 1.375Z" stroke="black" stroke-width="2"/>
</svg>
