<svg width="18" height="17" viewBox="0 0 18 17" fill="none" xmlns="http://www.w3.org/2000/svg">
<path d="M5.87501 7C5.87501 6.75277 5.94833 6.5111 6.08568 6.30554C6.22303 6.09998 6.41825 5.93976 6.64666 5.84515C6.87507 5.75054 7.1264 5.72579 7.36888 5.77402C7.61135 5.82225 7.83408 5.9413 8.0089 6.11612C8.18371 6.29093 8.30276 6.51366 8.351 6.75614C8.39923 6.99861 8.37447 7.24995 8.27986 7.47836C8.18525 7.70676 8.02504 7.90199 7.81948 8.03934C7.61392 8.17669 7.37224 8.25 7.12501 8.25C6.79349 8.25 6.47555 8.1183 6.24113 7.88388C6.00671 7.64946 5.87501 7.33152 5.87501 7ZM10.875 8.25C11.1222 8.25 11.3639 8.17669 11.5695 8.03934C11.775 7.90199 11.9353 7.70676 12.0299 7.47836C12.1245 7.24995 12.1492 6.99861 12.101 6.75614C12.0528 6.51366 11.9337 6.29093 11.7589 6.11612C11.5841 5.9413 11.3614 5.82225 11.1189 5.77402C10.8764 5.72579 10.6251 5.75054 10.3967 5.84515C10.1683 5.93976 9.97303 6.09998 9.83568 6.30554C9.69833 6.5111 9.62501 6.75277 9.62501 7C9.62501 7.33152 9.75671 7.64946 9.99113 7.88388C10.2256 8.1183 10.5435 8.25 10.875 8.25ZM17.4375 2V12C17.4375 12.4144 17.2729 12.8118 16.9799 13.1049C16.6868 13.3979 16.2894 13.5625 15.875 13.5625H5.59923L3.14064 15.6852L3.13126 15.6938C2.85114 15.9311 2.49608 16.0617 2.12892 16.0625C1.89965 16.0619 1.67328 16.0113 1.46564 15.9141C1.19515 15.7901 0.966114 15.5907 0.805948 15.34C0.645781 15.0892 0.561266 14.7976 0.562514 14.5V2C0.562514 1.5856 0.727134 1.18817 1.02016 0.895146C1.31318 0.60212 1.71061 0.4375 2.12501 0.4375H15.875C16.2894 0.4375 16.6868 0.60212 16.9799 0.895146C17.2729 1.18817 17.4375 1.5856 17.4375 2ZM15.5625 2.3125H2.43751V13.8148L4.63751 11.9148C4.80756 11.7676 5.0251 11.6869 5.25001 11.6875H15.5625V2.3125Z" fill="#94A3B8"/>
</svg>
