<svg width="25" height="21" viewBox="0 0 25 21" fill="none" xmlns="http://www.w3.org/2000/svg">
<path d="M24.5 6.78125C24.5 14.4375 13.148 20.6347 12.6645 20.8906C12.5371 20.9592 12.3947 20.995 12.25 20.995C12.1053 20.995 11.9629 20.9592 11.8355 20.8906C11.352 20.6347 0 14.4375 0 6.78125C0.00202643 4.98337 0.717128 3.25971 1.98842 1.98842C3.25971 0.717128 4.98337 0.00202643 6.78125 0C9.03984 0 11.0173 0.97125 12.25 2.61297C13.4827 0.97125 15.4602 0 17.7188 0C19.5166 0.00202643 21.2403 0.717128 22.5116 1.98842C23.7829 3.25971 24.498 4.98337 24.5 6.78125Z" fill="#F82121"/>
</svg>
