<svg width="22" height="22" viewBox="0 0 22 22" fill="none" xmlns="http://www.w3.org/2000/svg">
<path d="M15.7241 13.8125C14.6928 15.5994 12.9688 16.625 11 16.625C9.03125 16.625 7.31 15.6003 6.27594 13.8125C6.13319 13.5546 6.0974 13.2509 6.17627 12.9668C6.25514 12.6827 6.44237 12.441 6.69767 12.2935C6.95298 12.1461 7.25595 12.1048 7.54141 12.1785C7.82687 12.2521 8.072 12.4349 8.22407 12.6875C8.58875 13.3184 9.43438 14.375 11 14.375C12.5656 14.375 13.4113 13.3175 13.7759 12.6875C13.8483 12.5567 13.946 12.4417 14.0633 12.3491C14.1807 12.2565 14.3153 12.1882 14.4593 12.1482C14.6033 12.1083 14.7539 12.0974 14.9021 12.1162C15.0504 12.1351 15.1934 12.1833 15.3229 12.258C15.4523 12.3328 15.5655 12.4325 15.656 12.5515C15.7464 12.6705 15.8122 12.8064 15.8496 12.9511C15.8869 13.0958 15.8951 13.2465 15.8735 13.3944C15.852 13.5423 15.8012 13.6845 15.7241 13.8125ZM21.125 11C21.125 13.0025 20.5312 14.9601 19.4186 16.6251C18.3061 18.2902 16.7248 19.5879 14.8747 20.3543C13.0246 21.1206 10.9888 21.3211 9.02471 20.9305C7.06066 20.5398 5.25656 19.5755 3.84055 18.1595C2.42454 16.7435 1.46023 14.9393 1.06955 12.9753C0.678878 11.0112 0.879387 8.97543 1.64572 7.12533C2.41206 5.27523 3.70981 3.69392 5.37486 2.58137C7.0399 1.46882 8.99747 0.875 11 0.875C13.6844 0.877978 16.258 1.94567 18.1562 3.84383C20.0543 5.74199 21.122 8.3156 21.125 11ZM18.875 11C18.875 9.44247 18.4131 7.91992 17.5478 6.62488C16.6825 5.32985 15.4526 4.32049 14.0136 3.72445C12.5747 3.12841 10.9913 2.97246 9.46367 3.27632C7.93607 3.58017 6.53288 4.3302 5.43154 5.43153C4.3302 6.53287 3.58018 7.93606 3.27632 9.46366C2.97246 10.9913 3.12841 12.5747 3.72445 14.0136C4.32049 15.4526 5.32985 16.6825 6.62489 17.5478C7.91993 18.4131 9.44248 18.875 11 18.875C13.0879 18.8728 15.0896 18.0424 16.566 16.566C18.0424 15.0896 18.8728 13.0879 18.875 11ZM7.625 10.625C7.92168 10.625 8.21169 10.537 8.45836 10.3722C8.70503 10.2074 8.89729 9.97311 9.01082 9.69902C9.12436 9.42494 9.15406 9.12334 9.09618 8.83236C9.0383 8.54139 8.89544 8.27412 8.68566 8.06434C8.47589 7.85456 8.20861 7.7117 7.91764 7.65382C7.62667 7.59594 7.32507 7.62565 7.05098 7.73918C6.77689 7.85271 6.54262 8.04497 6.3778 8.29164C6.21298 8.53832 6.125 8.82833 6.125 9.125C6.125 9.52282 6.28304 9.90436 6.56434 10.1857C6.84565 10.467 7.22718 10.625 7.625 10.625ZM14.375 7.625C14.0783 7.625 13.7883 7.71297 13.5416 7.8778C13.295 8.04262 13.1027 8.27689 12.9892 8.55098C12.8757 8.82506 12.8459 9.12666 12.9038 9.41764C12.9617 9.70861 13.1046 9.97588 13.3143 10.1857C13.5241 10.3954 13.7914 10.5383 14.0824 10.5962C14.3733 10.6541 14.6749 10.6244 14.949 10.5108C15.2231 10.3973 15.4574 10.205 15.6222 9.95836C15.787 9.71168 15.875 9.42167 15.875 9.125C15.875 8.72718 15.717 8.34564 15.4357 8.06434C15.1544 7.78304 14.7728 7.625 14.375 7.625Z" fill="black"/>
</svg>
