<svg width="20" height="16" viewBox="0 0 20 16" fill="none" xmlns="http://www.w3.org/2000/svg">
<path d="M1.75 12.9219H18.25C18.5359 12.9219 18.8105 13.0351 19.0127 13.2373C19.2149 13.4395 19.3281 13.7141 19.3281 14C19.3281 14.2859 19.2149 14.5605 19.0127 14.7627C18.8105 14.9649 18.5359 15.0781 18.25 15.0781H1.75C1.46406 15.0781 1.18949 14.9649 0.987305 14.7627C0.785117 14.5605 0.671875 14.2859 0.671875 14C0.671875 13.7141 0.785117 13.4395 0.987305 13.2373C1.18949 13.0351 1.46406 12.9219 1.75 12.9219ZM1.75 6.92188H18.25C18.5359 6.92188 18.8105 7.03512 19.0127 7.2373C19.2149 7.43949 19.3281 7.71406 19.3281 8C19.3281 8.28594 19.2149 8.56051 19.0127 8.7627C18.8105 8.96488 18.5359 9.07812 18.25 9.07812H1.75C1.46406 9.07812 1.18949 8.96488 0.987305 8.7627C0.785117 8.56051 0.671875 8.28594 0.671875 8C0.671875 7.71406 0.785117 7.43949 0.987305 7.2373C1.18949 7.03512 1.46406 6.92188 1.75 6.92188ZM1.75 0.921875H18.25C18.5359 0.921875 18.8105 1.03512 19.0127 1.2373C19.2149 1.43949 19.3281 1.71406 19.3281 2C19.3281 2.28594 19.2149 2.56051 19.0127 2.7627C18.8105 2.96488 18.5359 3.07812 18.25 3.07812H1.75C1.46406 3.07812 1.18949 2.96488 0.987305 2.7627C0.785117 2.56051 0.671875 2.28594 0.671875 2C0.671875 1.71406 0.785117 1.43949 0.987305 1.2373C1.18949 1.03512 1.46406 0.921875 1.75 0.921875Z" fill="#475569" stroke="#475569" stroke-width="0.09375"/>
</svg>
