<svg width="19" height="17" viewBox="0 0 19 17" fill="none" xmlns="http://www.w3.org/2000/svg">
<path d="M17.5781 5.11484C17.3728 4.88222 17.1203 4.69594 16.8374 4.56838C16.5546 4.44083 16.2478 4.37491 15.9375 4.375H11.875V3.4375C11.874 2.52614 11.5115 1.65239 10.867 1.00796C10.2226 0.36353 9.34887 0.00103388 8.4375 0C8.26347 2.04088e-05 8.09287 0.0484841 7.94482 0.139965C7.79677 0.231446 7.6771 0.362332 7.59922 0.517969L4.73281 6.25H1.5625C1.1481 6.25 0.750671 6.41462 0.457646 6.70765C0.16462 7.00067 0 7.3981 0 7.8125V14.6875C0 15.1019 0.16462 15.4993 0.457646 15.7924C0.750671 16.0854 1.1481 16.25 1.5625 16.25H15C15.5332 16.2499 16.0479 16.0551 16.4476 15.7022C16.8472 15.3493 17.1042 14.8626 17.1703 14.3336L18.1078 6.83359C18.1464 6.52593 18.1191 6.21358 18.0278 5.91726C17.9365 5.62095 17.7832 5.34743 17.5781 5.11484ZM1.875 8.125H4.375V14.375H1.875V8.125ZM16.25 6.60156L15.3125 14.1016C15.3029 14.1775 15.2658 14.2473 15.2082 14.2977C15.1506 14.3481 15.0765 14.3756 15 14.375H6.25V7.40859L8.97031 1.96875C9.27201 2.07819 9.53268 2.27787 9.71691 2.54065C9.90114 2.80343 9.99998 3.11657 10 3.4375V5.3125C10 5.56114 10.0988 5.7996 10.2746 5.97541C10.4504 6.15123 10.6889 6.25 10.9375 6.25H15.9375C15.982 6.24965 16.0261 6.25883 16.0669 6.27692C16.1076 6.295 16.1439 6.32159 16.1735 6.35488C16.2031 6.38817 16.2252 6.4274 16.2384 6.46995C16.2516 6.5125 16.2556 6.55737 16.25 6.60156Z" fill="#94A3B8"/>
</svg>
