<svg width="6" height="18" viewBox="0 0 6 18" fill="none" xmlns="http://www.w3.org/2000/svg">
<path d="M5.1875 9C5.1875 9.43265 5.05921 9.85558 4.81884 10.2153C4.57847 10.575 4.23683 10.8554 3.83712 11.021C3.43741 11.1866 2.99757 11.2299 2.57324 11.1455C2.14891 11.0611 1.75913 10.8527 1.45321 10.5468C1.14728 10.2409 0.938938 9.85109 0.854533 9.42676C0.770128 9.00243 0.813448 8.56259 0.979015 8.16288C1.14458 7.76317 1.42496 7.42153 1.78469 7.18116C2.14442 6.9408 2.56735 6.8125 3 6.8125C3.58016 6.8125 4.13656 7.04297 4.5468 7.45321C4.95703 7.86344 5.1875 8.41984 5.1875 9ZM3 4.9375C3.43265 4.9375 3.85558 4.80921 4.21531 4.56884C4.57504 4.32848 4.85542 3.98683 5.02099 3.58712C5.18655 3.18741 5.22987 2.74757 5.14547 2.32324C5.06106 1.89891 4.85273 1.50913 4.5468 1.2032C4.24087 0.897278 3.85109 0.688938 3.42676 0.604533C3.00243 0.520128 2.56259 0.563448 2.16288 0.729015C1.76317 0.894581 1.42153 1.17496 1.18116 1.53469C0.940796 1.89442 0.812501 2.31735 0.812501 2.75C0.812501 3.33016 1.04297 3.88656 1.45321 4.2968C1.86344 4.70703 2.41984 4.9375 3 4.9375ZM3 13.0625C2.56735 13.0625 2.14442 13.1908 1.78469 13.4312C1.42496 13.6715 1.14458 14.0132 0.979015 14.4129C0.813448 14.8126 0.770128 15.2524 0.854533 15.6768C0.938938 16.1011 1.14728 16.4909 1.45321 16.7968C1.75913 17.1027 2.14891 17.3111 2.57324 17.3955C2.99757 17.4799 3.43741 17.4366 3.83712 17.271C4.23683 17.1054 4.57847 16.825 4.81884 16.4653C5.05921 16.1056 5.1875 15.6826 5.1875 15.25C5.1875 14.6698 4.95703 14.1134 4.5468 13.7032C4.13656 13.293 3.58016 13.0625 3 13.0625Z" fill="#CBD5E1"/>
</svg>
