<svg width="19" height="21" viewBox="0 0 19 21" fill="none" xmlns="http://www.w3.org/2000/svg">
<path d="M14.1267 0.297852C14.6129 0.29798 15.0945 0.393958 15.5437 0.580078C15.993 0.766307 16.402 1.03884 16.7458 1.38281C17.0896 1.72676 17.3616 2.13565 17.5476 2.58496C17.7336 3.03421 17.8299 3.51574 17.8298 4.00195C17.8297 4.48831 17.7338 4.97064 17.5476 5.41992C17.3615 5.86881 17.0885 6.2765 16.7449 6.62012L16.7292 6.63477V6.63574L7.7478 15.2812C7.64577 15.3794 7.52513 15.4562 7.39331 15.5078C7.26151 15.5594 7.12077 15.5848 6.97925 15.582C6.83773 15.5793 6.69782 15.5489 6.56812 15.4922C6.43841 15.4355 6.32153 15.353 6.22339 15.251C6.12522 15.1489 6.04749 15.0283 5.99585 14.8965C5.94433 14.7648 5.91888 14.6238 5.92163 14.4824C5.92443 14.3411 5.95584 14.2018 6.01245 14.0723C6.06917 13.9425 6.15063 13.8247 6.25269 13.7266L15.2253 5.09082L15.2263 5.08984C15.5155 4.79882 15.6768 4.40444 15.6755 3.99414C15.6742 3.58389 15.5105 3.19057 15.2195 2.90137C15.0755 2.75828 14.9043 2.6455 14.7166 2.56836C14.5286 2.49119 14.3269 2.45152 14.1238 2.45215C13.7138 2.45348 13.3211 2.61749 13.032 2.9082L3.82886 12.083C3.18731 12.7249 2.82675 13.5954 2.8269 14.5029C2.82699 14.9523 2.91564 15.3974 3.08765 15.8125C3.2597 16.2277 3.51202 16.6051 3.82983 16.9229C4.14759 17.2405 4.52509 17.4922 4.94019 17.6641C5.35545 17.836 5.80129 17.9249 6.25073 17.9248C7.15815 17.9245 8.02811 17.5636 8.66968 16.9219L16.363 9.23438C16.4633 9.13408 16.5826 9.05428 16.7136 9C16.8446 8.94578 16.985 8.918 17.1267 8.91797C17.2684 8.91797 17.4089 8.94585 17.5398 9C17.6708 9.05425 17.7901 9.13415 17.8904 9.23438C17.9907 9.33467 18.0705 9.45392 18.1248 9.58496C18.179 9.71594 18.2068 9.85628 18.2068 9.99805C18.2068 10.1398 18.179 10.2802 18.1248 10.4111C18.0719 10.5388 17.9939 10.6543 17.8972 10.7529L17.8962 10.7539L17.8865 10.7627L10.1941 18.4502C9.1477 19.4962 7.72834 20.0842 6.24878 20.084C4.76934 20.0837 3.35047 19.4954 2.30444 18.4492C1.25842 17.4028 0.670448 15.9835 0.670654 14.5039C0.670916 13.0244 1.25912 11.6056 2.30542 10.5596L11.5076 1.38184C12.2022 0.687532 13.1446 0.297661 14.1267 0.297852Z" fill="#475569" stroke="#475569" stroke-width="0.09375"/>
</svg>
