<svg width="21" height="21" viewBox="0 0 21 21" fill="none" xmlns="http://www.w3.org/2000/svg">
<path d="M5.54492 0.934937C5.93589 0.887575 6.33172 0.968359 6.67383 1.16345C6.97301 1.33409 7.21744 1.58463 7.37988 1.88611L7.44434 2.01892L9.42285 6.4408C9.42488 6.44612 9.42716 6.45131 9.42969 6.45642V6.4574C9.54827 6.73456 9.59679 7.03698 9.57031 7.33728C9.54382 7.63752 9.44353 7.92699 9.27832 8.17908C9.25512 8.21482 9.2295 8.24894 9.20215 8.28162L7.41504 10.4066L7.39453 10.431L7.41016 10.4594C8.07645 11.6709 9.34189 12.9261 10.5684 13.5912L10.5967 13.6068L10.6211 13.5853L12.7119 11.8051C12.7442 11.778 12.7785 11.7523 12.8135 11.7289C13.0664 11.5593 13.3579 11.4561 13.6611 11.4281C13.8887 11.4071 14.1177 11.4283 14.3359 11.4916L14.5498 11.5687L14.5664 11.5765L18.9805 13.5551H18.9814C19.3419 13.7133 19.6418 13.9837 19.8369 14.3256C20.0076 14.6248 20.0899 14.9657 20.0762 15.308L20.0645 15.4545C19.8872 16.804 19.225 18.043 18.2012 18.9398C17.1772 19.8367 15.8612 20.3306 14.5 20.3285C6.87509 20.3285 0.672098 14.1252 0.671875 6.50037C0.669766 5.13916 1.16369 3.82317 2.06055 2.79919C2.95739 1.77537 4.1964 1.11319 5.5459 0.935913L5.54492 0.934937ZM5.53516 3.12244C4.76632 3.29187 4.07833 3.71908 3.58594 4.33337C3.09353 4.94785 2.82595 5.71294 2.82812 6.50037C2.83196 9.59465 4.06298 12.5614 6.25098 14.7494C8.43904 16.9373 11.4057 18.1685 14.5 18.1722C15.2873 18.1744 16.0516 17.9067 16.666 17.4144C17.2805 16.922 17.7085 16.2341 17.8779 15.4652L17.8857 15.4281L17.8506 15.4125L13.9131 13.6488L13.8867 13.6371L13.8643 13.6556L11.7607 15.4437C11.7291 15.4711 11.6958 15.4965 11.6611 15.5199C11.3983 15.6957 11.0946 15.8003 10.7793 15.8236C10.4638 15.8468 10.1472 15.7882 9.86133 15.6527H9.8623C8.0454 14.7722 6.23297 12.9722 5.35449 11.1742C5.21771 10.8904 5.15627 10.5755 5.17676 10.2611C5.19733 9.94672 5.29914 9.6429 5.47168 9.37927C5.49532 9.34301 5.521 9.30794 5.54883 9.27478L7.3457 7.13611L7.36426 7.11365L7.35254 7.0863L5.58789 3.1488L5.57227 3.11365L5.53516 3.12244Z" fill="#475569" stroke="#475569" stroke-width="0.09375"/>
</svg>
