<svg width="16" height="16" viewBox="0 0 16 16" fill="none" xmlns="http://www.w3.org/2000/svg">
<path d="M15.8125 8C15.8125 8.24864 15.7137 8.4871 15.5379 8.66291C15.3621 8.83873 15.1236 8.9375 14.875 8.9375H8.9375V14.875C8.9375 15.1236 8.83873 15.3621 8.66291 15.5379C8.4871 15.7137 8.24864 15.8125 8 15.8125C7.75136 15.8125 7.5129 15.7137 7.33709 15.5379C7.16127 15.3621 7.0625 15.1236 7.0625 14.875V8.9375H1.125C0.87636 8.9375 0.637903 8.83873 0.462087 8.66291C0.286272 8.4871 0.1875 8.24864 0.1875 8C0.1875 7.75136 0.286272 7.5129 0.462087 7.33709C0.637903 7.16127 0.87636 7.0625 1.125 7.0625H7.0625V1.125C7.0625 0.87636 7.16127 0.637903 7.33709 0.462087C7.5129 0.286272 7.75136 0.1875 8 0.1875C8.24864 0.1875 8.4871 0.286272 8.66291 0.462087C8.83873 0.637903 8.9375 0.87636 8.9375 1.125V7.0625H14.875C15.1236 7.0625 15.3621 7.16127 15.5379 7.33709C15.7137 7.5129 15.8125 7.75136 15.8125 8Z" fill="white"/>
</svg>
