<svg width="22" height="22" viewBox="0 0 22 22" fill="none" xmlns="http://www.w3.org/2000/svg">
<path d="M11 0.921875C13.672 0.924852 16.2337 1.98758 18.123 3.87695C20.0124 5.76632 21.0751 8.32803 21.0781 11C21.0781 12.9931 20.4871 14.9414 19.3799 16.5986C18.2725 18.256 16.698 19.5478 14.8564 20.3105C13.015 21.0733 10.989 21.2735 9.03418 20.8848C7.07922 20.4959 5.28347 19.5354 3.87402 18.126C2.46457 16.7165 1.5041 14.9208 1.11523 12.9658C0.726472 11.011 0.926744 8.98495 1.68945 7.14355C2.45224 5.30202 3.74403 3.72752 5.40137 2.62012C6.95506 1.58209 8.76455 0.997679 10.627 0.928711L11 0.921875ZM14.0312 3.68066C12.5838 3.08123 10.9906 2.92483 9.4541 3.23047C7.91757 3.53619 6.50623 4.29065 5.39844 5.39844C4.29065 6.50623 3.53619 7.91757 3.23047 9.4541C2.92483 10.9906 3.08123 12.5838 3.68066 14.0312C4.28024 15.4787 5.29593 16.7165 6.59863 17.5869C7.82005 18.403 9.24288 18.8618 10.707 18.916L11 18.9219C13.1003 18.9196 15.1145 18.0848 16.5996 16.5996C18.0848 15.1145 18.9196 13.1003 18.9219 11C18.9219 9.4332 18.4574 7.90138 17.5869 6.59863C16.7165 5.29593 15.4787 4.28024 14.0312 3.68066ZM11 14.4219C11.3854 14.4219 11.7548 14.5751 12.0273 14.8477C12.2999 15.1202 12.4531 15.4896 12.4531 15.875C12.4531 16.1624 12.3677 16.4437 12.208 16.6826C12.0483 16.9214 11.8211 17.1078 11.5557 17.2178C11.2903 17.3276 10.9985 17.3558 10.7168 17.2998C10.4349 17.2437 10.1759 17.1056 9.97266 16.9023C9.76943 16.6991 9.63126 16.4401 9.5752 16.1582C9.51921 15.8765 9.54742 15.5847 9.65723 15.3193C9.76716 15.0539 9.95357 14.8267 10.1924 14.667C10.4313 14.5073 10.7126 14.4219 11 14.4219ZM11 5.04688C13.2528 5.04688 15.0781 6.71187 15.0781 8.75C15.0781 10.4474 13.8123 11.885 12.0879 12.3193L12.0596 12.3262L12.0537 12.3555C11.9975 12.6157 11.8467 12.8461 11.6309 13.002C11.4151 13.1577 11.1494 13.2277 10.8848 13.1992C10.6199 13.1706 10.375 13.0451 10.1973 12.8467C10.0196 12.6483 9.92123 12.3913 9.92188 12.125V11.375C9.92188 11.0891 10.0351 10.8145 10.2373 10.6123C10.4395 10.4101 10.7141 10.2969 11 10.2969C12.0468 10.2969 12.9219 9.61202 12.9219 8.75C12.9219 7.88798 12.0468 7.20312 11 7.20312C9.95321 7.20313 9.07812 7.88798 9.07812 8.75V9.125C9.07812 9.41094 8.96488 9.68551 8.7627 9.8877C8.56051 10.0899 8.28594 10.2031 8 10.2031C7.71407 10.2031 7.43949 10.0899 7.2373 9.8877C7.03512 9.68551 6.92188 9.41094 6.92188 9.125V8.75C6.92188 6.71187 8.74721 5.04688 11 5.04688Z" fill="#475569" stroke="#475569" stroke-width="0.09375"/>
</svg>
