<svg width="12" height="17" viewBox="0 0 12 17" fill="none" xmlns="http://www.w3.org/2000/svg">
<path d="M10.375 0.1875H1.625C1.2106 0.1875 0.813171 0.35212 0.520146 0.645146C0.22712 0.938171 0.0625001 1.3356 0.0625001 1.75V15.5C0.0624439 15.6674 0.107198 15.8317 0.192114 15.9759C0.277031 16.1202 0.399013 16.2391 0.545392 16.3202C0.691772 16.4014 0.857212 16.4419 1.02453 16.4375C1.19185 16.4331 1.35494 16.384 1.49688 16.2953L5.99922 13.4828L10.5031 16.2953C10.6451 16.384 10.8082 16.4331 10.9755 16.4375C11.1428 16.4419 11.3082 16.4014 11.4546 16.3202C11.601 16.2391 11.723 16.1202 11.8079 15.9759C11.8928 15.8317 11.9376 15.6674 11.9375 15.5V1.75C11.9375 1.3356 11.7729 0.938171 11.4799 0.645146C11.1868 0.35212 10.7894 0.1875 10.375 0.1875ZM10.0625 13.8086L6.49609 11.5797C6.3471 11.4866 6.17493 11.4372 5.99922 11.4372C5.82351 11.4372 5.65134 11.4866 5.50234 11.5797L1.9375 13.8086V2.0625H10.0625V13.8086Z" fill="#94A3B8"/>
</svg>
