<svg width="20" height="22" viewBox="0 0 20 22" fill="none" xmlns="http://www.w3.org/2000/svg">
<path d="M18.9244 9.35754L3.16875 0.366915C2.83656 0.18083 2.45558 0.100294 2.0765 0.136019C1.69741 0.171743 1.33819 0.322035 1.04661 0.566903C0.755024 0.811772 0.544903 1.13961 0.444192 1.50681C0.343481 1.87402 0.356953 2.26318 0.482817 2.62254L3.31219 11L0.482817 19.3775C0.383344 19.6602 0.353048 19.9625 0.394468 20.2592C0.435888 20.556 0.547816 20.8385 0.720877 21.0831C0.893938 21.3276 1.12309 21.5272 1.38914 21.665C1.65519 21.8028 1.95039 21.8748 2.25 21.875C2.5722 21.8744 2.88885 21.7911 3.16969 21.6332L3.17813 21.6275L18.9281 12.621C19.2169 12.4575 19.4571 12.2203 19.6243 11.9337C19.7914 11.647 19.8795 11.3211 19.8795 10.9893C19.8795 10.6574 19.7914 10.3315 19.6243 10.0449C19.4571 9.75818 19.2169 9.52101 18.9281 9.35754H18.9244ZM2.92407 19.1807L5.30719 12.125H10.5C10.7984 12.125 11.0845 12.0065 11.2955 11.7955C11.5065 11.5846 11.625 11.2984 11.625 11C11.625 10.7017 11.5065 10.4155 11.2955 10.2045C11.0845 9.99357 10.7984 9.87504 10.5 9.87504H5.30719L2.92313 2.81754L17.2444 10.9897L2.92407 19.1807Z" fill="#475569"/>
</svg>
