<svg width="20" height="22" viewBox="0 0 20 22" fill="none" xmlns="http://www.w3.org/2000/svg">
<path d="M18.5479 9.22979L2.79229 0.239168C2.46009 0.0530839 2.07912 -0.0274521 1.70003 0.00827229C1.32095 0.0439967 0.961725 0.194288 0.670142 0.439157C0.37856 0.684025 0.168438 1.01186 0.0677272 1.37907C-0.0329841 1.74627 -0.0195119 2.13543 0.106352 2.49479L2.93573 10.8723L0.106352 19.2498C0.00687908 19.5324 -0.0234164 19.8348 0.0180033 20.1315C0.059423 20.4282 0.171351 20.7107 0.344412 20.9553C0.517473 21.1999 0.746627 21.3994 1.01268 21.5372C1.27873 21.675 1.57392 21.7471 1.87354 21.7473C2.19574 21.7466 2.51238 21.6633 2.79323 21.5054L2.80166 21.4998L18.5517 12.4932C18.8404 12.3298 19.0807 12.0926 19.2478 11.8059C19.415 11.5192 19.503 11.1933 19.503 10.8615C19.503 10.5297 19.415 10.2038 19.2478 9.91711C19.0807 9.63044 18.8404 9.39326 18.5517 9.22979H18.5479ZM2.5476 19.0529L4.93073 11.9973H10.1235C10.4219 11.9973 10.7081 11.8788 10.919 11.6678C11.13 11.4568 11.2485 11.1707 11.2485 10.8723C11.2485 10.5739 11.13 10.2878 10.919 10.0768C10.7081 9.86582 10.4219 9.74729 10.1235 9.74729H4.93073L2.54666 2.68979L16.8679 10.862L2.5476 19.0529Z" fill="white"/>
</svg>
