<svg width="20" height="16" viewBox="0 0 20 16" fill="none" xmlns="http://www.w3.org/2000/svg">
<path d="M18.7885 7.0875L12.5385 0.837503C12.4074 0.706289 12.2404 0.616898 12.0585 0.580638C11.8766 0.544379 11.6881 0.56288 11.5167 0.633801C11.3453 0.704722 11.1988 0.824876 11.0958 0.979063C10.9927 1.13325 10.9377 1.31454 10.9377 1.5V4.37032C8.92519 4.61407 6.7455 5.61172 4.9416 7.14141C2.66347 9.07422 1.24472 11.5703 0.946283 14.1727C0.91605 14.4338 0.96892 14.6978 1.09738 14.9272C1.22583 15.1566 1.42333 15.3396 1.66179 15.4503C1.90026 15.5609 2.16754 15.5936 2.42563 15.5436C2.68373 15.4936 2.9195 15.3636 3.09941 15.1719C3.9166 14.3016 6.77128 11.5984 10.9377 11.2328V14C10.9379 14.1853 10.9929 14.3664 11.096 14.5204C11.199 14.6744 11.3453 14.7945 11.5165 14.8654C11.6877 14.9363 11.8761 14.9548 12.0579 14.9187C12.2396 14.8826 12.4066 14.7934 12.5377 14.6625L18.7877 8.4125C18.9634 8.23682 19.0621 7.9986 19.0623 7.75016C19.0624 7.50173 18.9639 7.26339 18.7885 7.0875ZM12.8127 11.7344V10.25C12.8127 10.0014 12.7139 9.76291 12.5381 9.58709C12.3623 9.41128 12.1238 9.3125 11.8752 9.3125C8.04707 9.3125 5.11191 10.9969 3.29785 12.4461C3.85488 11.0273 4.83144 9.69453 6.15488 8.57188C7.91425 7.07891 10.0525 6.1875 11.8752 6.1875C12.1238 6.1875 12.3623 6.08873 12.5381 5.91292C12.7139 5.7371 12.8127 5.49864 12.8127 5.25V3.76563L16.7971 7.75L12.8127 11.7344Z" fill="#94A3B8"/>
</svg>
