<svg width="22" height="22" viewBox="0 0 22 22" fill="none" xmlns="http://www.w3.org/2000/svg">
<path d="M11 0.921875C13.672 0.924852 16.2337 1.98758 18.123 3.87695C20.0124 5.76632 21.0751 8.32803 21.0781 11C21.0781 12.9931 20.4871 14.9414 19.3799 16.5986C18.2725 18.256 16.698 19.5478 14.8564 20.3105C13.015 21.0733 10.989 21.2735 9.03418 20.8848C7.07922 20.4959 5.28347 19.5354 3.87402 18.126C2.46457 16.7165 1.5041 14.9208 1.11523 12.9658C0.726472 11.011 0.926744 8.98495 1.68945 7.14355C2.45224 5.30202 3.74403 3.72752 5.40137 2.62012C6.95506 1.58209 8.76455 0.997679 10.627 0.928711L11 0.921875ZM14.0312 3.68066C12.5838 3.08123 10.9906 2.92483 9.4541 3.23047C7.91757 3.53619 6.50623 4.29065 5.39844 5.39844C4.29065 6.50623 3.53619 7.91757 3.23047 9.4541C2.92483 10.9906 3.08123 12.5838 3.68066 14.0312C4.28024 15.4787 5.29593 16.7165 6.59863 17.5869C7.82005 18.403 9.24288 18.8618 10.707 18.916L11 18.9219C13.1003 18.9196 15.1145 18.0848 16.5996 16.5996C18.0848 15.1145 18.9196 13.1003 18.9219 11C18.9219 9.4332 18.4574 7.90138 17.5869 6.59863C16.7165 5.29593 15.4787 4.28024 14.0312 3.68066ZM14.8965 12.1631C15.0385 12.1812 15.1759 12.2273 15.2998 12.2988C15.4236 12.3704 15.5316 12.4662 15.6182 12.5801C15.7048 12.6941 15.7679 12.8242 15.8037 12.9629C15.8395 13.1016 15.8478 13.246 15.8271 13.3877C15.8065 13.5294 15.7575 13.6654 15.6836 13.7881V13.7891C14.6602 15.5623 12.9511 16.5781 11 16.5781C9.04938 16.5781 7.34364 15.5635 6.31738 13.79C6.18059 13.5429 6.14612 13.2517 6.22168 12.9795C6.29724 12.7073 6.47616 12.4753 6.7207 12.334C6.96524 12.1928 7.25586 12.1532 7.5293 12.2236C7.80261 12.2942 8.03784 12.4692 8.18359 12.7109C8.55167 13.3477 9.40964 14.4219 11 14.4219C12.5904 14.4219 13.4484 13.3467 13.8164 12.7109L13.8174 12.71C13.8867 12.5848 13.9804 12.4744 14.0928 12.3857C14.2051 12.2972 14.3338 12.2316 14.4717 12.1934C14.6097 12.155 14.7544 12.145 14.8965 12.1631ZM7.06934 7.78223C7.33468 7.67242 7.62655 7.64421 7.9082 7.7002C8.19008 7.75626 8.44912 7.89443 8.65234 8.09766C8.85557 8.30088 8.99374 8.55992 9.0498 8.8418C9.10579 9.12345 9.07758 9.41532 8.96777 9.68066C8.85784 9.94607 8.67143 10.1733 8.43262 10.333C8.19365 10.4927 7.9124 10.5781 7.625 10.5781C7.23961 10.5781 6.87017 10.4249 6.59766 10.1523C6.32514 9.87983 6.17188 9.51039 6.17188 9.125C6.17188 8.8376 6.25732 8.55635 6.41699 8.31738C6.57665 8.07857 6.80393 7.89216 7.06934 7.78223ZM14.375 7.67188C14.7604 7.67188 15.1298 7.82514 15.4023 8.09766C15.6749 8.37017 15.8281 8.73961 15.8281 9.125C15.8281 9.4124 15.7427 9.69365 15.583 9.93262C15.4233 10.1714 15.1961 10.3578 14.9307 10.4678C14.6653 10.5776 14.3735 10.6058 14.0918 10.5498C13.8099 10.4937 13.5509 10.3556 13.3477 10.1523C13.1444 9.94912 13.0063 9.69008 12.9502 9.4082C12.8942 9.12655 12.9224 8.83468 13.0322 8.56934C13.1422 8.30393 13.3286 8.07665 13.5674 7.91699C13.8063 7.75732 14.0876 7.67188 14.375 7.67188Z" fill="#475569" stroke="#475569" stroke-width="0.09375"/>
</svg>
