<svg width="22" height="22" viewBox="0 0 22 22" fill="none" xmlns="http://www.w3.org/2000/svg">
<path d="M11 6.17188C12.28 6.17336 13.507 6.68276 14.4121 7.58789C15.3172 8.49302 15.8266 9.71996 15.8281 11L15.8145 11.3564C15.7531 12.1858 15.4789 12.9878 15.0146 13.6826C14.4841 14.4766 13.7298 15.0955 12.8477 15.4609C11.9655 15.8263 10.9941 15.9216 10.0576 15.7354C9.12123 15.549 8.26105 15.0892 7.58594 14.4141C6.91082 13.7389 6.451 12.8788 6.26465 11.9424C6.07836 11.0059 6.17367 10.0345 6.53906 9.15234C6.90448 8.27015 7.52344 7.51587 8.31738 6.98535C9.01222 6.52108 9.81418 6.24695 10.6436 6.18555L11 6.17188ZM12.0225 8.53125C11.5343 8.32906 10.9968 8.2768 10.4785 8.37988C9.96034 8.48302 9.48395 8.73676 9.11035 9.11035C8.73676 9.48395 8.48301 9.96034 8.37988 10.4785C8.2768 10.9968 8.32906 11.5343 8.53125 12.0225C8.73348 12.5107 9.07624 12.9281 9.51562 13.2217C9.95499 13.5152 10.4716 13.6719 11 13.6719C11.7086 13.6719 12.3886 13.3907 12.8896 12.8896C13.3907 12.3886 13.6719 11.7086 13.6719 11C13.6719 10.4716 13.5152 9.955 13.2217 9.51562C12.9281 9.07624 12.5107 8.73348 12.0225 8.53125ZM3.53027 15.2393L3.50586 15.2256L0.898438 13.7402C0.763858 13.6639 0.647314 13.5589 0.556641 13.4336C0.465949 13.3082 0.402372 13.1645 0.37207 13.0127C0.1085 11.6847 0.108442 10.3173 0.37207 8.98926C0.402136 8.8374 0.465144 8.69394 0.555664 8.56836C0.646367 8.44262 0.763591 8.33726 0.898438 8.26074L3.5 6.7793L3.52344 6.76562V6.73828L3.53613 3.7998C3.53688 3.64424 3.57199 3.49063 3.6377 3.34961C3.70345 3.20853 3.79924 3.08307 3.91797 2.98242C4.96289 2.09621 6.1665 1.41617 7.46484 0.978516C7.60765 0.930347 7.75911 0.912834 7.90918 0.926758C8.05919 0.940705 8.20448 0.985968 8.33594 1.05957L10.9775 2.53516L11 2.54785L11.0225 2.53516L13.6641 1.06055C13.7953 0.987386 13.9402 0.942516 14.0898 0.928711C14.2396 0.914946 14.3907 0.932444 14.5332 0.980469C15.8313 1.41637 17.0357 2.09404 18.0811 2.97852C18.2002 3.07929 18.2954 3.20525 18.3613 3.34668C18.4272 3.48802 18.4623 3.64192 18.4629 3.79785L18.4727 6.7334V6.76074L18.4961 6.77441L21.1016 8.25977C21.2364 8.33599 21.3535 8.44098 21.4443 8.56641C21.5351 8.69181 21.5975 8.83549 21.6279 8.9873C21.8922 10.3152 21.8929 11.6826 21.6299 13.0107C21.5998 13.1625 21.5377 13.3061 21.4473 13.4316C21.3566 13.5574 21.2393 13.6627 21.1045 13.7393L18.4971 15.2207L18.4736 15.2344V15.2617L18.4609 18.2002C18.4602 18.3558 18.4251 18.5094 18.3594 18.6504C18.2936 18.7914 18.1987 18.917 18.0801 19.0176C17.0351 19.9039 15.8307 20.5838 14.5322 21.0215C14.3895 21.0696 14.2379 21.0872 14.0879 21.0732C13.9379 21.0593 13.7926 21.014 13.6611 20.9404L11.0225 19.4648L11 19.4521L10.9775 19.4648L8.33887 20.9395C8.20764 21.0126 8.06269 21.0575 7.91309 21.0713C7.76341 21.0851 7.61216 21.0675 7.46973 21.0195C6.17163 20.5836 4.96724 19.9059 3.92188 19.0215C3.80275 18.9207 3.70753 18.7947 3.6416 18.6533C3.57574 18.512 3.54065 18.3581 3.54004 18.2021L3.53027 15.2666V15.2393ZM16.3076 4.32031L16.2891 4.30664C15.6774 3.84954 15.0083 3.47473 14.2988 3.19238L14.2783 3.18359L14.2588 3.19434L11.71 4.61914C11.5415 4.71236 11.3507 4.75846 11.1582 4.75391H10.834C10.6409 4.75906 10.4497 4.71265 10.2812 4.61816L7.73633 3.19336L7.7168 3.18262L7.69531 3.19141C6.98724 3.47398 6.31984 3.84918 5.70996 4.30664L5.69141 4.32031V4.34375L5.68066 7.18652C5.67991 7.33702 5.64794 7.48569 5.58691 7.62207L5.5166 7.75391C5.46132 7.84291 5.40664 7.93166 5.35547 8.02637C5.25939 8.19822 5.11846 8.34124 4.94727 8.43848L2.42676 9.87109L2.40625 9.88184L2.40332 9.90527C2.30479 10.6324 2.30479 11.3696 2.40332 12.0967L2.40625 12.1191L2.42676 12.1309L4.94824 13.5723H4.94922C5.11988 13.6688 5.26071 13.8103 5.35645 13.9814C5.40744 14.073 5.46211 14.1646 5.5166 14.2529L5.51758 14.2539C5.62403 14.424 5.68078 14.6206 5.68164 14.8213L5.69141 17.6562L5.69238 17.6797L5.71094 17.6934C6.32262 18.1505 6.99168 18.5253 7.70117 18.8076L7.72168 18.8164L7.74121 18.8057L10.29 17.3838C10.4585 17.2905 10.6493 17.2435 10.8418 17.248H11.1924C11.3767 17.2481 11.558 17.2957 11.7188 17.3857L14.2637 18.8096L14.2832 18.8213L14.3047 18.8125C15.013 18.5288 15.6803 18.1521 16.29 17.6934L16.3086 17.6797V17.6562L16.3223 14.8135C16.323 14.663 16.355 14.5143 16.416 14.3779L16.4863 14.2461L16.6475 13.9736C16.7432 13.8015 16.8843 13.6587 17.0557 13.5615L19.5762 12.1289L19.5957 12.1182L19.5996 12.0947C19.6975 11.3662 19.6965 10.6276 19.5967 9.89941L19.5938 9.87695L19.5732 9.86523L17.0518 8.42773H17.0508C16.8801 8.33122 16.7393 8.18965 16.6436 8.01855C16.5926 7.92696 16.5379 7.83539 16.4834 7.74707L16.4824 7.74609C16.376 7.57597 16.3192 7.37939 16.3184 7.17871L16.3086 4.34375L16.3076 4.32031Z" fill="#475569" stroke="#475569" stroke-width="0.09375"/>
</svg>
