<svg width="19" height="15" viewBox="0 0 19 15" fill="none" xmlns="http://www.w3.org/2000/svg">
<path d="M2.85075 11.4353C2.84388 11.4284 2.83701 11.4216 2.84034 11.4077C2.87315 11.2714 3.07928 11.1581 3.27659 11.0127C3.46215 10.876 3.64123 10.7972 3.81096 10.7314C3.92855 10.6859 4.05041 10.6378 4.17529 10.5685C4.35907 10.4665 4.43212 10.3951 4.51891 10.3497C4.62484 10.2943 4.73724 10.2286 4.92092 10.1625C5.06303 10.1114 5.18098 10.0687 5.45477 9.99256C5.63388 9.94273 5.75001 9.95759 5.87509 9.93001C6.09118 9.88237 6.41519 9.75695 6.64497 9.65611C6.76496 9.60345 6.94967 9.56256 7.14448 9.51375C7.34082 9.46456 7.45001 9.44434 7.61974 9.43383C7.75028 9.42575 7.91456 9.36817 8.06722 9.33674C8.2582 9.29742 8.37245 9.29865 8.54249 9.28471C8.69031 9.27258 8.90609 9.22914 9.19362 9.21186C9.8632 9.17163 9.9892 9.16004 10.1071 9.14245C10.3195 9.11077 10.6552 9.13881 10.8145 9.14932C11.0022 9.16169 11.2101 9.18043 11.3212 9.20822C11.4278 9.23487 11.5086 9.2845 11.5919 9.34683C11.6645 9.4011 11.7375 9.47848 11.7829 9.56183C11.8372 9.66158 11.8973 9.81107 11.9286 9.93293C11.9519 10.0239 12.0568 10.0887 12.0778 10.2313C12.0816 10.2574 12.1125 10.0629 12.1125 9.90306C12.1125 9.80002 12.1334 10.1303 12.1127 10.2038C12.1035 10.2361 12.0917 10.0694 12.1158 9.92398C12.1592 9.66116 12.4102 9.65247 12.5077 9.62469C12.5922 9.60061 12.7016 9.54175 12.8163 9.46526C12.931 9.38882 13.1869 9.42353 13.3366 9.39231C13.3989 9.37931 13.4581 9.32654 13.5136 9.27461C13.5523 9.23836 13.5486 9.18085 13.5418 9.12892C13.5239 8.99382 13.3963 8.84118 13.2578 8.68165C13.1862 8.59924 13.1948 8.50796 13.212 8.44563C13.2516 8.30168 13.5062 8.35499 13.6864 8.32044C13.9028 8.27896 14.0688 8.29276 14.1034 8.25124C14.1724 8.16858 14.1383 8.043 14.1418 8.00148C14.1492 7.915 13.9932 7.89044 13.858 7.86255C13.7268 7.83548 13.6321 7.78617 13.6181 7.76889C13.5351 7.66693 14.0115 7.66816 14.2245 7.64745C14.3287 7.63733 14.4224 7.58511 14.4779 7.54359C14.4983 7.52841 14.4786 7.50207 14.4612 7.48802C14.3885 7.42928 14.2638 7.41174 14.1596 7.35274C14.0092 7.26754 13.9029 7.25897 13.7988 7.19664C13.6948 7.13431 13.5632 7.065 13.4726 6.96437C13.4036 6.88777 13.3201 6.79443 13.1677 6.59358C13.0901 6.49142 12.9942 6.37858 12.8899 6.12206C12.8117 5.92972 12.7998 5.75419 12.6336 5.59778C12.5535 5.52238 12.3567 5.50381 12.0868 5.47259C11.8049 5.43998 11.5516 5.47571 11.3131 5.524C11.006 5.58618 10.788 5.69758 10.6429 5.78385C10.2267 6.03138 10.1218 6.19709 10.0629 6.22842C9.98385 6.27044 9.85184 6.05265 9.62987 5.88937C9.29663 5.64425 9.17146 5.5802 9.08144 5.53857C8.87697 5.44401 8.5889 5.80165 8.44311 5.93651C8.24699 6.11793 8.22093 6.26619 8.15485 6.40845C8.12767 6.46695 8.06129 6.51616 7.86846 6.56819C7.44322 6.68293 7.06955 6.59962 6.90367 6.6376C6.68097 6.6886 6.528 6.75905 6.41082 6.87279C5.98575 7.2854 5.85532 7.36262 5.74074 7.43547C5.61883 7.51298 5.48776 7.57075 5.33156 7.66087C5.17018 7.75398 5.00198 7.88961 4.89084 7.94549C4.72377 8.0295 4.56491 8.22969 4.40538 8.37872C4.26362 8.51114 4.11348 8.66698 4.09277 8.70506C4.08212 8.72465 4.05832 8.73628 4.26749 8.73993C4.47666 8.74357 4.91624 8.7367 5.2045 8.71256C5.62008 8.67775 5.84679 8.54293 6.06126 8.42523C6.44343 8.21551 6.65163 8.17475 6.8738 8.09514C6.95558 8.06584 7.05436 8.04987 7.25447 7.97754C7.61808 7.84613 7.94182 7.67544 8.15308 7.60967C8.43072 7.52324 8.67673 7.41923 8.90661 7.3595C9.1029 7.3085 9.27448 7.26605 9.47543 7.20007C9.62182 7.15201 9.78066 7.16865 9.97817 7.15137C10.2011 7.13187 10.3709 7.16157 10.4228 7.18582C10.4666 7.20625 10.7158 7.25148 11.097 7.33109C11.4504 7.40491 11.5502 7.50124 11.6611 7.64672C11.8359 7.87596 12.202 7.91084 12.303 7.9559C12.3272 7.96671 12.3548 7.97328 12.7192 7.96308C13.0837 7.95288 13.7842 7.92541 14.1589 7.90782C14.5613 7.88893 14.6099 7.85568 14.6652 7.8176C14.738 7.76741 14.9623 7.67607 15.2017 7.52694C15.2794 7.47857 15.2557 7.4671 15.2211 7.44983C15.0667 7.37287 14.9027 7.34223 14.6319 7.24534C14.4456 7.17874 14.2638 7.08581 14.0628 7.00245C13.9048 6.93689 13.7713 6.84313 13.5772 6.76997C13.3647 6.68993 13.0987 6.64166 12.9249 6.61023C12.7673 6.58173 12.6129 6.58588 12.4703 6.56861C12.4117 6.56151 12.3488 6.55133 12.283 6.53052C12.2264 6.51262 12.601 6.51657 13.2562 6.52334C13.592 6.5268 13.804 6.60669 14.0155 6.61013C14.2216 6.61348 14.3878 6.62064 14.4192 6.59993C14.4947 6.55 14.2018 6.45476 14.0074 6.26422C13.72 5.98256 13.5982 5.73421 13.4831 5.56646C13.3652 5.39458 13.1053 5.2476 12.9042 5.12241C12.7801 5.04521 12.6196 4.96288 12.5291 4.88296C12.4277 4.79337 12.3003 4.57534 12.2722 4.42174C12.2374 4.30373 12.2306 4.1928 12.1995 4.10976C12.1754 4.06792 12.1342 4.02671 12.0917 3.98425" stroke="#94A3B8" stroke-width="2" stroke-linecap="round"/>
<path d="M3.5376 10.4363C3.55133 10.4363 3.59962 10.4157 3.67923 10.3742C3.71763 10.3532 3.75197 10.3326 3.77653 10.3117C3.80109 10.2908 3.81483 10.2702 3.84979 10.2281" stroke="#94A3B8" stroke-width="2" stroke-linecap="round"/>
<path d="M17.8505 6.52496L11.6005 0.274957C11.4694 0.143743 11.3024 0.0543523 11.1205 0.0180927C10.9386 -0.0181669 10.7501 0.000334228 10.5787 0.0712553C10.4073 0.142176 10.2609 0.262331 10.1578 0.416518C10.0547 0.570705 9.99971 0.751996 9.9997 0.937457V3.80777C7.9872 4.05152 5.80752 5.04918 4.00361 6.57886C1.72548 8.51168 0.306733 11.0078 0.00829521 13.6101C-0.0219384 13.8713 0.0309317 14.1353 0.159387 14.3647C0.287843 14.594 0.485344 14.7771 0.723806 14.8877C0.962268 14.9984 1.22955 15.0311 1.48764 14.9811C1.74574 14.9311 1.98151 14.801 2.16142 14.6093C2.97861 13.739 5.8333 11.0359 9.9997 10.6703V13.4375C9.99987 13.6228 10.0549 13.8039 10.158 13.9579C10.261 14.1119 10.4073 14.2319 10.5785 14.3028C10.7498 14.3737 10.9381 14.3923 11.1199 14.3562C11.3016 14.3201 11.4686 14.2309 11.5997 14.1L17.8497 7.84996C18.0254 7.67428 18.1241 7.43606 18.1243 7.18762C18.1244 6.93918 18.0259 6.70084 17.8505 6.52496ZM11.8747 11.1718V9.68746C11.8747 9.43882 11.7759 9.20036 11.6001 9.02455C11.4243 8.84873 11.1858 8.74996 10.9372 8.74996C7.10908 8.74996 4.17392 10.4343 2.35986 11.8836C2.91689 10.4648 3.89345 9.13199 5.21689 8.00933C6.97627 6.51636 9.11455 5.62496 10.9372 5.62496C11.1858 5.62496 11.4243 5.52619 11.6001 5.35037C11.7759 5.17455 11.8747 4.9361 11.8747 4.68746V3.20308L15.8591 7.18746L11.8747 11.1718Z" fill="#94A3B8"/>
</svg>
