<svg width="48" height="48" viewBox="0 0 48 48" fill="none" xmlns="http://www.w3.org/2000/svg">
<path d="M11.25 27H8.25C7.85218 27 7.47064 27.158 7.18934 27.4393C6.90804 27.7206 6.75 28.1022 6.75 28.5V39C6.75 39.3978 6.90804 39.7794 7.18934 40.0607C7.47064 40.342 7.85218 40.5 8.25 40.5C8.64782 40.5 9.02936 40.342 9.31066 40.0607C9.59196 39.7794 9.75 39.3978 9.75 39V37.5H11.25C12.6424 37.5 13.9777 36.9469 14.9623 35.9623C15.9469 34.9777 16.5 33.6424 16.5 32.25C16.5 30.8576 15.9469 29.5223 14.9623 28.5377C13.9777 27.5531 12.6424 27 11.25 27ZM11.25 34.5H9.75V30H11.25C11.8467 30 12.419 30.2371 12.841 30.659C13.2629 31.081 13.5 31.6533 13.5 32.25C13.5 32.8467 13.2629 33.419 12.841 33.841C12.419 34.2629 11.8467 34.5 11.25 34.5ZM42 37.6631C42 38.0495 41.8508 38.4209 41.5837 38.7C41.0615 39.2622 40.4298 39.7119 39.7276 40.0214C39.0254 40.3309 38.2674 40.4938 37.5 40.5C34.1906 40.5 31.5 37.4719 31.5 33.75C31.5 30.0281 34.1906 27 37.5 27C38.6026 27.0037 39.6788 27.3374 40.59 27.9581C40.9199 28.1819 41.1475 28.5276 41.2226 28.9191C41.2976 29.3107 41.2141 29.716 40.9903 30.0459C40.7665 30.3759 40.4209 30.6034 40.0293 30.6785C39.6378 30.7536 39.2324 30.67 38.9025 30.4463C38.491 30.1588 38.0019 30.0032 37.5 30C35.8463 30 34.5 31.6875 34.5 33.75C34.5 35.8125 35.8463 37.5 37.5 37.5C38.0415 37.494 38.567 37.3153 39 36.99V36C38.6022 36 38.2206 35.842 37.9393 35.5607C37.658 35.2794 37.5 34.8978 37.5 34.5C37.5 34.1022 37.658 33.7206 37.9393 33.4393C38.2206 33.158 38.6022 33 39 33H40.5C40.8978 33 41.2794 33.158 41.5607 33.4393C41.842 33.7206 42 34.1022 42 34.5V37.6631ZM29.25 28.5V39C29.25 39.3179 29.1491 39.6276 28.9617 39.8844C28.7744 40.1412 28.5102 40.3318 28.2075 40.4287C28.0597 40.4763 27.9053 40.5003 27.75 40.5C27.5112 40.5 27.2759 40.443 27.0636 40.3338C26.8513 40.2245 26.6682 40.0662 26.5294 39.8719L21.75 33.1875V39C21.75 39.3978 21.592 39.7794 21.3107 40.0607C21.0294 40.342 20.6478 40.5 20.25 40.5C19.8522 40.5 19.4706 40.342 19.1893 40.0607C18.908 39.7794 18.75 39.3978 18.75 39V28.5C18.75 28.1822 18.8509 27.8726 19.0382 27.6158C19.2256 27.3591 19.4896 27.1685 19.7922 27.0715C20.0949 26.9745 20.4205 26.9762 20.7222 27.0762C21.0238 27.1762 21.2859 27.3695 21.4706 27.6281L26.25 34.3125V28.5C26.25 28.1022 26.408 27.7206 26.6893 27.4393C26.9706 27.158 27.3522 27 27.75 27C28.1478 27 28.5294 27.158 28.8107 27.4393C29.092 27.7206 29.25 28.1022 29.25 28.5ZM9 22.5C9.39782 22.5 9.77936 22.342 10.0607 22.0607C10.342 21.7794 10.5 21.3978 10.5 21V7.5H27V16.5C27 16.8978 27.158 17.2794 27.4393 17.5607C27.7206 17.842 28.1022 18 28.5 18H37.5V21C37.5 21.3978 37.658 21.7794 37.9393 22.0607C38.2206 22.342 38.6022 22.5 39 22.5C39.3978 22.5 39.7794 22.342 40.0607 22.0607C40.342 21.7794 40.5 21.3978 40.5 21V16.5C40.5002 16.303 40.4615 16.1078 40.3862 15.9257C40.3109 15.7436 40.2005 15.5782 40.0613 15.4388L29.5613 4.93875C29.4218 4.7995 29.2564 4.68908 29.0743 4.6138C28.8922 4.53851 28.697 4.49985 28.5 4.5H10.5C9.70435 4.5 8.94129 4.81607 8.37868 5.37868C7.81607 5.94129 7.5 6.70435 7.5 7.5V21C7.5 21.3978 7.65804 21.7794 7.93934 22.0607C8.22064 22.342 8.60218 22.5 9 22.5ZM30 9.62063L35.3794 15H30V9.62063Z" fill="#1E293B"/>
</svg>
