<svg width="17" height="13" viewBox="0 0 17 13" fill="none" xmlns="http://www.w3.org/2000/svg">
<path d="M16.1632 2.28839L6.16325 12.2884C6.07615 12.3758 5.97266 12.4451 5.8587 12.4925C5.74475 12.5398 5.62257 12.5641 5.49918 12.5641C5.3758 12.5641 5.25362 12.5398 5.13967 12.4925C5.02571 12.4451 4.92222 12.3758 4.83512 12.2884L0.460122 7.9134C0.372916 7.82619 0.303741 7.72266 0.256545 7.60872C0.20935 7.49478 0.185059 7.37266 0.185059 7.24933C0.185059 7.126 0.20935 7.00388 0.256545 6.88994C0.303741 6.776 0.372916 6.67248 0.460122 6.58527C0.547328 6.49806 0.650857 6.42889 0.764797 6.38169C0.878737 6.3345 1.00086 6.31021 1.12418 6.31021C1.24751 6.31021 1.36963 6.3345 1.48357 6.38169C1.59751 6.42889 1.70104 6.49806 1.78825 6.58527L5.49997 10.297L14.8367 0.961831C15.0128 0.785711 15.2517 0.686768 15.5007 0.686768C15.7498 0.686768 15.9887 0.785711 16.1648 0.961831C16.3409 1.13795 16.4399 1.37682 16.4399 1.62589C16.4399 1.87497 16.3409 2.11384 16.1648 2.28996L16.1632 2.28839Z" fill="white"/>
</svg>
