<svg width="18" height="22" viewBox="0 0 18 22" fill="none" xmlns="http://www.w3.org/2000/svg">
<path d="M17.2959 6.455L12.0459 1.205C11.9415 1.10039 11.8174 1.0174 11.6808 0.96078C11.5442 0.904156 11.3978 0.875007 11.25 0.875H2.25C1.75272 0.875 1.27581 1.07254 0.924175 1.42417C0.572544 1.77581 0.375 2.25272 0.375 2.75V19.25C0.375 19.7473 0.572544 20.2242 0.924175 20.5758C1.27581 20.9275 1.75272 21.125 2.25 21.125H15.75C16.2473 21.125 16.7242 20.9275 17.0758 20.5758C17.4275 20.2242 17.625 19.7473 17.625 19.25V7.25C17.625 6.95187 17.5066 6.66593 17.2959 6.455ZM14.1562 6.5H12V4.34375L14.1562 6.5ZM2.625 18.875V3.125H9.75V7.625C9.75 7.92337 9.86853 8.20952 10.0795 8.4205C10.2905 8.63147 10.5766 8.75 10.875 8.75H15.375V18.875H2.625ZM12.0459 12.0791C12.2573 12.2904 12.376 12.5771 12.376 12.8759C12.376 13.1748 12.2573 13.4615 12.0459 13.6728C11.8346 13.8842 11.5479 14.0029 11.2491 14.0029C10.9502 14.0029 10.6635 13.8842 10.4522 13.6728L10.125 13.3438V16.25C10.125 16.5484 10.0065 16.8345 9.79549 17.0455C9.58452 17.2565 9.29837 17.375 9 17.375C8.70163 17.375 8.41548 17.2565 8.2045 17.0455C7.99353 16.8345 7.875 16.5484 7.875 16.25V13.3438L7.54594 13.6737C7.33459 13.8851 7.04795 14.0038 6.74906 14.0038C6.45018 14.0038 6.16353 13.8851 5.95219 13.6737C5.74084 13.4624 5.62211 13.1758 5.62211 12.8769C5.62211 12.578 5.74084 12.2913 5.95219 12.08L8.20219 9.83C8.3067 9.72512 8.4309 9.6419 8.56764 9.58512C8.70439 9.52834 8.851 9.49911 8.99906 9.49911C9.14713 9.49911 9.29374 9.52834 9.43048 9.58512C9.56723 9.6419 9.69142 9.72512 9.79594 9.83L12.0459 12.0791Z" fill="#4F46E5"/>
</svg>
