<svg width="20" height="20" viewBox="0 0 20 20" fill="none" xmlns="http://www.w3.org/2000/svg">
<path d="M12.4995 17.1431C12.3823 17.1431 12.266 17.1195 12.1577 17.0747C12.0496 17.0299 11.9514 16.9641 11.8687 16.8813L5.61865 10.6313C5.53573 10.5485 5.46914 10.4506 5.42432 10.3423C5.37951 10.234 5.3568 10.1177 5.35693 10.0005C5.35708 9.88329 5.38022 9.76688 5.42529 9.65869C5.47037 9.55058 5.53656 9.45222 5.61963 9.36963L11.8696 3.11963C12.0369 2.95238 12.264 2.85897 12.5005 2.85889C12.737 2.85889 12.964 2.9525 13.1313 3.11963C13.2986 3.28688 13.393 3.51397 13.3931 3.75049C13.3931 3.98713 13.2987 4.21402 13.1313 4.38135L7.51221 10.0005L7.54541 10.0327L13.1304 15.6196C13.2132 15.7025 13.2789 15.8014 13.3237 15.9097C13.3684 16.0177 13.3911 16.1335 13.3911 16.2505C13.3911 16.3676 13.3686 16.484 13.3237 16.5923C13.2789 16.7004 13.2131 16.7986 13.1304 16.8813C13.0475 16.9642 12.9486 17.0299 12.8403 17.0747C12.7322 17.1195 12.6165 17.143 12.4995 17.1431Z" fill="#475569" stroke="#475569" stroke-width="0.09375"/>
</svg>
