<svg width="20" height="20" viewBox="0 0 20 20" fill="none" xmlns="http://www.w3.org/2000/svg">
<path d="M7.50049 2.85693C7.61766 2.85693 7.73403 2.88045 7.84229 2.92529C7.95045 2.97013 8.04855 3.03586 8.13135 3.11865L14.3813 9.36865C14.4643 9.45149 14.5309 9.54941 14.5757 9.65771C14.6205 9.76601 14.6432 9.88232 14.6431 9.99951C14.6429 10.1167 14.6198 10.2331 14.5747 10.3413C14.5296 10.4494 14.4634 10.5478 14.3804 10.6304L8.13037 16.8804C7.96312 17.0476 7.73603 17.141 7.49951 17.1411C7.26303 17.1411 7.03595 17.0475 6.86865 16.8804C6.7014 16.7131 6.60702 16.486 6.60693 16.2495C6.60693 16.0129 6.70132 15.786 6.86865 15.6187L12.4878 9.99951L12.4546 9.96729L6.86963 4.38037C6.78678 4.29752 6.72111 4.19858 6.67627 4.09033C6.63156 3.98227 6.60893 3.86646 6.60889 3.74951C6.60889 3.63235 6.63144 3.51596 6.67627 3.40771C6.72106 3.29959 6.78691 3.20144 6.86963 3.11865C6.95248 3.0358 7.05142 2.97013 7.15967 2.92529C7.2678 2.88053 7.38346 2.85697 7.50049 2.85693Z" fill="#475569" stroke="#475569" stroke-width="0.09375"/>
</svg>
