<svg width="105" height="50" viewBox="0 0 105 50" fill="none" xmlns="http://www.w3.org/2000/svg">
<path d="M47.44 29V14.1H57.38V16.5H50.16V20.62H56.48V23.02H50.16V29H47.44ZM58.7987 29V13.86H61.4187V29H58.7987ZM69.0178 29.24C67.9511 29.24 66.9778 28.9933 66.0978 28.5C65.2311 28.0067 64.5378 27.3333 64.0178 26.48C63.5111 25.6267 63.2578 24.6533 63.2578 23.56C63.2578 22.4667 63.5111 21.4933 64.0178 20.64C64.5378 19.7867 65.2311 19.1133 66.0978 18.62C66.9645 18.1267 67.9378 17.88 69.0178 17.88C70.0845 17.88 71.0511 18.1267 71.9178 18.62C72.7845 19.1133 73.4711 19.7867 73.9778 20.64C74.4978 21.48 74.7578 22.4533 74.7578 23.56C74.7578 24.6533 74.4978 25.6267 73.9778 26.48C73.4578 27.3333 72.7645 28.0067 71.8978 28.5C71.0311 28.9933 70.0711 29.24 69.0178 29.24ZM69.0178 26.84C69.6045 26.84 70.1178 26.7 70.5578 26.42C71.0111 26.14 71.3645 25.7533 71.6178 25.26C71.8845 24.7533 72.0178 24.1867 72.0178 23.56C72.0178 22.92 71.8845 22.36 71.6178 21.88C71.3645 21.3867 71.0111 21 70.5578 20.72C70.1178 20.4267 69.6045 20.28 69.0178 20.28C68.4178 20.28 67.8911 20.4267 67.4378 20.72C66.9845 21 66.6245 21.3867 66.3578 21.88C66.1045 22.36 65.9778 22.92 65.9778 23.56C65.9778 24.1867 66.1045 24.7533 66.3578 25.26C66.6245 25.7533 66.9845 26.14 67.4378 26.42C67.8911 26.7 68.4178 26.84 69.0178 26.84ZM79.1494 29L75.4094 18.12H78.1694L80.9094 26.38L79.9494 26.36L82.8694 18.12H85.1894L88.0894 26.36L87.1294 26.38L89.8694 18.12H92.6294L88.8894 29H86.5494L83.5894 20.38H84.4694L81.4694 29H79.1494ZM93.9256 29V18.12H96.3856V20.26L96.1856 19.88C96.439 19.2267 96.8523 18.7333 97.4256 18.4C98.0123 18.0533 98.6923 17.88 99.4656 17.88C100.266 17.88 100.972 18.0533 101.586 18.4C102.212 18.7467 102.699 19.2333 103.046 19.86C103.392 20.4733 103.566 21.1867 103.566 22V29H100.946V22.62C100.946 22.14 100.852 21.7267 100.666 21.38C100.479 21.0333 100.219 20.7667 99.8856 20.58C99.5656 20.38 99.1856 20.28 98.7456 20.28C98.319 20.28 97.939 20.38 97.6056 20.58C97.2723 20.7667 97.0123 21.0333 96.8256 21.38C96.639 21.7267 96.5456 22.14 96.5456 22.62V29H93.9256Z" fill="#1E293B"/>
<g filter="url(#filter0_d_5083_2216)">
<rect x="8.25" y="4.25" width="33.5" height="33.5" rx="10.75" fill="white" stroke="#E2E8F0" stroke-width="0.5"/>
<path d="M19.517 30V12.5455H31.0739V15.5881H23.2074V19.7472H30.3068V22.7898H23.2074V30H19.517Z" fill="#4F46E5"/>
</g>
<defs>
<filter id="filter0_d_5083_2216" x="0" y="0" width="50" height="50" filterUnits="userSpaceOnUse" color-interpolation-filters="sRGB">
<feFlood flood-opacity="0" result="BackgroundImageFix"/>
<feColorMatrix in="SourceAlpha" type="matrix" values="0 0 0 0 0 0 0 0 0 0 0 0 0 0 0 0 0 0 127 0" result="hardAlpha"/>
<feOffset dy="4"/>
<feGaussianBlur stdDeviation="4"/>
<feComposite in2="hardAlpha" operator="out"/>
<feColorMatrix type="matrix" values="0 0 0 0 0.309804 0 0 0 0 0.27451 0 0 0 0 0.898039 0 0 0 0.42 0"/>
<feBlend mode="normal" in2="BackgroundImageFix" result="effect1_dropShadow_5083_2216"/>
<feBlend mode="normal" in="SourceGraphic" in2="effect1_dropShadow_5083_2216" result="shape"/>
</filter>
</defs>
</svg>
