<svg width="14" height="18" viewBox="0 0 14 18" fill="none" xmlns="http://www.w3.org/2000/svg">
<path d="M7.51678 18C5.70022 18 4.11335 17.5669 2.75615 16.7007C1.41984 15.8134 0.501119 14.6197 0 13.1197L3.06935 11.6303C3.50783 12.6021 4.11335 13.3627 4.88591 13.912C5.67934 14.4613 6.5563 14.7359 7.51678 14.7359C8.26846 14.7359 8.86353 14.5669 9.30201 14.2289C9.74049 13.8908 9.95973 13.4472 9.95973 12.8979C9.95973 12.5599 9.86577 12.2852 9.67785 12.0739C9.51081 11.8415 9.27069 11.6514 8.95749 11.5035C8.66517 11.3345 8.34154 11.1972 7.98658 11.0915L5.1991 10.2993C3.75839 9.87676 2.66219 9.23239 1.91051 8.3662C1.17972 7.5 0.814318 6.47535 0.814318 5.29225C0.814318 4.23592 1.07532 3.3169 1.59732 2.53521C2.14019 1.7324 2.88143 1.10916 3.82103 0.665494C4.78151 0.221831 5.8777 0 7.10962 0C8.71738 0 10.1372 0.390845 11.3691 1.17254C12.601 1.95423 13.478 3.05282 14 4.46831L10.868 5.95775C10.5757 5.17606 10.085 4.55282 9.39597 4.08803C8.70693 3.62324 7.93438 3.39085 7.0783 3.39085C6.38926 3.39085 5.84638 3.5493 5.44966 3.8662C5.05295 4.1831 4.85459 4.59507 4.85459 5.10211C4.85459 5.41901 4.93811 5.69366 5.10515 5.92606C5.27218 6.15845 5.50186 6.34859 5.79418 6.49648C6.10738 6.64437 6.46234 6.78169 6.85906 6.90845L9.58389 7.7324C10.9828 8.15493 12.0582 8.78873 12.8098 9.6338C13.5824 10.4789 13.9687 11.5141 13.9687 12.7394C13.9687 13.7746 13.6972 14.6937 13.1544 15.4965C12.6115 16.2782 11.8598 16.8908 10.8993 17.3345C9.93885 17.7782 8.81133 18 7.51678 18Z" fill="#4F46E5"/>
</svg>
