<svg width="20" height="22" viewBox="0 0 20 22" fill="none" xmlns="http://www.w3.org/2000/svg">
<path d="M2.08057 0.182434C2.45017 0.147603 2.82211 0.226588 3.146 0.40802L18.9009 9.39825L18.9116 9.40411H18.9146C19.1917 9.56323 19.4224 9.79203 19.5835 10.0682C19.7464 10.3476 19.8325 10.6656 19.8325 10.9891C19.8325 11.3126 19.7465 11.6305 19.5835 11.91C19.4205 12.1894 19.1863 12.4205 18.9048 12.5799L3.15479 21.5867L3.15186 21.5887L3.14697 21.5926C2.87312 21.7466 2.5637 21.8263 2.24951 21.827C1.95763 21.8267 1.66985 21.7581 1.41064 21.6238C1.15138 21.4896 0.92798 21.2948 0.759277 21.0565C0.590543 20.818 0.481302 20.5421 0.440918 20.2527C0.400552 19.9635 0.429954 19.6688 0.526855 19.3934V19.3924L3.35693 11.0154L3.36182 10.9998L3.35693 10.9852L0.526855 2.60724L0.48584 2.47443C0.402474 2.16221 0.403842 1.83259 0.489746 1.51935C0.58794 1.16132 0.792367 0.841103 1.07666 0.602356C1.36085 0.363756 1.71114 0.21731 2.08057 0.182434ZM2.87842 2.83282L5.26318 9.89044L5.27393 9.92169H10.5005C10.7862 9.92182 11.0601 10.036 11.2622 10.2381C11.4643 10.4402 11.5786 10.714 11.5786 10.9998C11.5786 11.2858 11.4644 11.5603 11.2622 11.7625C11.0601 11.9645 10.7862 12.0778 10.5005 12.0779H5.27393L5.26318 12.1102L2.87939 19.1658L2.84033 19.283L2.94775 19.2215L17.2681 11.0301L17.3394 10.9901L17.2681 10.949L2.94678 2.77716L2.83936 2.71564L2.87842 2.83282Z" fill="#4F46E5" stroke="#4F46E5" stroke-width="0.09375"/>
</svg>
