<svg width="9" height="16" viewBox="0 0 9 16" fill="none" xmlns="http://www.w3.org/2000/svg">
<path d="M8.16331 13.5868C8.33943 13.763 8.43838 14.0018 8.43838 14.2509C8.43838 14.5 8.33943 14.7388 8.16331 14.915C7.98719 15.0911 7.74832 15.19 7.49925 15.19C7.25018 15.19 7.01131 15.0911 6.83519 14.915L0.585187 8.66496C0.497787 8.57786 0.42844 8.47437 0.381123 8.36041C0.333805 8.24646 0.309448 8.12428 0.309448 8.00089C0.309448 7.87751 0.333805 7.75533 0.381123 7.64138C0.42844 7.52742 0.497787 7.42393 0.585187 7.33683L6.83519 1.08683C7.01131 0.910711 7.25018 0.811768 7.49925 0.811768C7.74832 0.811768 7.98719 0.910711 8.16331 1.08683C8.33943 1.26295 8.43838 1.50182 8.43838 1.75089C8.43838 1.99997 8.33943 2.23884 8.16331 2.41496L2.57816 8.00011L8.16331 13.5868Z" fill="#4F46E5"/>
</svg>
