<svg width="24" height="25" viewBox="0 0 24 25" fill="none" xmlns="http://www.w3.org/2000/svg">
<g clip-path="url(#clip0_5002_436)">
<path d="M24 12.5C24 5.87264 18.6274 0.5 12 0.5C5.37264 0.5 0 5.87264 0 12.5C0 18.1275 3.87456 22.8498 9.10128 24.1467V16.1672H6.62688V12.5H9.10128V10.9198C9.10128 6.83552 10.9498 4.9424 14.9597 4.9424C15.72 4.9424 17.0318 5.09168 17.5685 5.24048V8.56448C17.2853 8.53472 16.7933 8.51984 16.1822 8.51984C14.2147 8.51984 13.4544 9.26528 13.4544 11.203V12.5H17.3741L16.7006 16.1672H13.4544V24.4122C19.3963 23.6946 24.0005 18.6354 24.0005 12.5H24Z" fill="#0866FF"/>
<path d="M16.7002 16.1672L17.3737 12.5H13.454V11.203C13.454 9.26526 14.2143 8.51982 16.1818 8.51982C16.7929 8.51982 17.2849 8.5347 17.5681 8.56446V5.24046C17.0314 5.09118 15.7196 4.94238 14.9593 4.94238C10.9493 4.94238 9.10087 6.8355 9.10087 10.9198V12.5H6.62646V16.1672H9.10087V24.1467C10.0292 24.3771 11.0002 24.5 11.9996 24.5C12.4916 24.5 12.9769 24.4697 13.4535 24.4121V16.1672H16.6997H16.7002Z" fill="white"/>
</g>
<defs>
<clipPath id="clip0_5002_436">
<rect width="24" height="24" fill="white" transform="translate(0 0.5)"/>
</clipPath>
</defs>
</svg>
