<svg width="18" height="15" viewBox="0 0 18 15" fill="none" xmlns="http://www.w3.org/2000/svg">
<path d="M16.5 0.9375H1.5C1.25136 0.9375 1.0129 1.03627 0.837087 1.21209C0.661272 1.3879 0.5625 1.62636 0.5625 1.875V12.5C0.5625 12.9144 0.72712 13.3118 1.02015 13.6049C1.31317 13.8979 1.7106 14.0625 2.125 14.0625H15.875C16.2894 14.0625 16.6868 13.8979 16.9799 13.6049C17.2729 13.3118 17.4375 12.9144 17.4375 12.5V1.875C17.4375 1.62636 17.3387 1.3879 17.1629 1.21209C16.9871 1.03627 16.7486 0.9375 16.5 0.9375ZM14.0898 2.8125L9 7.47813L3.91016 2.8125H14.0898ZM2.4375 12.1875V4.00625L8.36641 9.44141C8.53932 9.59996 8.7654 9.68792 9 9.68792C9.2346 9.68792 9.46068 9.59996 9.63359 9.44141L15.5625 4.00625V12.1875H2.4375Z" fill="#475569"/>
</svg>
