<svg width="18" height="17" viewBox="0 0 18 17" fill="none" xmlns="http://www.w3.org/2000/svg">
<path d="M17.311 14.9063C16.2399 13.0264 14.5673 11.5616 12.5626 10.7477C13.5595 9.99997 14.2959 8.95754 14.6675 7.76805C15.0391 6.57856 15.0269 5.30231 14.6329 4.12008C14.2388 2.93785 13.4827 1.90958 12.4718 1.18093C11.4608 0.452278 10.2462 0.0601807 9.00007 0.0601807C7.75389 0.0601807 6.5393 0.452278 5.52835 1.18093C4.5174 1.90958 3.76133 2.93785 3.36726 4.12008C2.97318 5.30231 2.96107 6.57856 3.33264 7.76805C3.70421 8.95754 4.44062 9.99997 5.43757 10.7477C3.43282 11.5616 1.76026 13.0264 0.689128 14.9063C0.622757 15.013 0.578521 15.132 0.55905 15.2561C0.539578 15.3803 0.54527 15.5071 0.575785 15.629C0.6063 15.7509 0.661016 15.8655 0.73668 15.9658C0.812345 16.0662 0.907413 16.1503 1.01623 16.2131C1.12505 16.276 1.2454 16.3164 1.37013 16.3318C1.49485 16.3472 1.62141 16.3374 1.74227 16.303C1.86313 16.2685 1.97583 16.2101 2.07366 16.1312C2.1715 16.0523 2.25248 15.9546 2.31178 15.8438C3.72741 13.3969 6.22741 11.9375 9.00007 11.9375C11.7727 11.9375 14.2727 13.3977 15.6883 15.8438C15.8169 16.0504 16.0207 16.199 16.2568 16.2581C16.4929 16.3172 16.7427 16.2822 16.9534 16.1604C17.1642 16.0387 17.3193 15.8398 17.386 15.6057C17.4528 15.3717 17.4258 15.1208 17.311 14.9063ZM4.93757 6.00002C4.93757 5.19654 5.17583 4.4111 5.62222 3.74302C6.06861 3.07495 6.70309 2.55424 7.44541 2.24676C8.18774 1.93928 9.00457 1.85883 9.79262 2.01558C10.5807 2.17234 11.3045 2.55925 11.8727 3.1274C12.4408 3.69555 12.8278 4.41942 12.9845 5.20747C13.1413 5.99552 13.0608 6.81235 12.7533 7.55468C12.4458 8.297 11.9251 8.93148 11.2571 9.37787C10.589 9.82426 9.80355 10.0625 9.00007 10.0625C7.923 10.0613 6.89041 9.63287 6.12881 8.87128C5.36722 8.10968 4.93881 7.07709 4.93757 6.00002Z" fill="#475569"/>
</svg>
