<svg width="17" height="18" viewBox="0 0 17 18" fill="none" xmlns="http://www.w3.org/2000/svg">
<path d="M14.75 5.9375H12.5625V4.375C12.5625 3.29756 12.1345 2.26425 11.3726 1.50238C10.6108 0.740512 9.57744 0.3125 8.5 0.3125C7.42256 0.3125 6.38925 0.740512 5.62738 1.50238C4.86551 2.26425 4.4375 3.29756 4.4375 4.375V5.9375H2.25C1.8356 5.9375 1.43817 6.10212 1.14515 6.39515C0.85212 6.68817 0.6875 7.0856 0.6875 7.5V16.25C0.6875 16.6644 0.85212 17.0618 1.14515 17.3549C1.43817 17.6479 1.8356 17.8125 2.25 17.8125H14.75C15.1644 17.8125 15.5618 17.6479 15.8549 17.3549C16.1479 17.0618 16.3125 16.6644 16.3125 16.25V7.5C16.3125 7.0856 16.1479 6.68817 15.8549 6.39515C15.5618 6.10212 15.1644 5.9375 14.75 5.9375ZM6.3125 4.375C6.3125 3.79484 6.54297 3.23844 6.9532 2.8282C7.36344 2.41797 7.91984 2.1875 8.5 2.1875C9.08016 2.1875 9.63656 2.41797 10.0468 2.8282C10.457 3.23844 10.6875 3.79484 10.6875 4.375V5.9375H6.3125V4.375ZM14.4375 15.9375H2.5625V7.8125H14.4375V15.9375Z" fill="white"/>
</svg>
