<svg width="16" height="19" viewBox="0 0 16 19" fill="none" xmlns="http://www.w3.org/2000/svg">
<path d="M14.25 6.4375H12.0625V4.875C12.0625 3.79756 11.6345 2.76425 10.8726 2.00238C10.1108 1.24051 9.07744 0.8125 8 0.8125C6.92256 0.8125 5.88925 1.24051 5.12738 2.00238C4.36551 2.76425 3.9375 3.79756 3.9375 4.875V6.4375H1.75C1.3356 6.4375 0.938171 6.60212 0.645146 6.89515C0.35212 7.18817 0.1875 7.5856 0.1875 8V16.75C0.1875 17.1644 0.35212 17.5618 0.645146 17.8549C0.938171 18.1479 1.3356 18.3125 1.75 18.3125H14.25C14.6644 18.3125 15.0618 18.1479 15.3549 17.8549C15.6479 17.5618 15.8125 17.1644 15.8125 16.75V8C15.8125 7.5856 15.6479 7.18817 15.3549 6.89515C15.0618 6.60212 14.6644 6.4375 14.25 6.4375ZM5.8125 4.875C5.8125 4.29484 6.04297 3.73844 6.4532 3.3282C6.86344 2.91797 7.41984 2.6875 8 2.6875C8.58016 2.6875 9.13656 2.91797 9.5468 3.3282C9.95703 3.73844 10.1875 4.29484 10.1875 4.875V6.4375H5.8125V4.875ZM13.9375 16.4375H2.0625V8.3125H13.9375V16.4375Z" fill="#475569"/>
</svg>
