<svg width="20" height="17" viewBox="0 0 20 17" fill="none" xmlns="http://www.w3.org/2000/svg">
<path d="M4.44345 0.994508C4.36112 0.901703 4.26119 0.826162 4.14945 0.772262C4.03771 0.718362 3.91638 0.687177 3.7925 0.680512C3.66862 0.673847 3.54465 0.691837 3.42777 0.733437C3.31089 0.775038 3.20343 0.839422 3.11162 0.922858C3.01981 1.00629 2.94547 1.10712 2.89292 1.2195C2.84036 1.33188 2.81063 1.45357 2.80545 1.57752C2.80028 1.70148 2.81975 1.82522 2.86275 1.94159C2.90575 2.05796 2.97142 2.16464 3.05595 2.25545L4.30595 3.63435C1.61454 5.42654 0.446571 7.99841 0.390321 8.11951C0.337394 8.2395 0.310059 8.36922 0.310059 8.50037C0.310059 8.63152 0.337394 8.76123 0.390321 8.88123C0.419228 8.94529 1.1036 10.464 2.6161 11.9758C4.63798 13.9953 7.1872 15.0625 9.9997 15.0625C11.3666 15.0701 12.7212 14.8044 13.9841 14.2812L15.5536 16.0078C15.7217 16.1884 15.9542 16.2954 16.2007 16.3057C16.4471 16.316 16.6877 16.2287 16.8703 16.0628C17.0529 15.8969 17.1627 15.6657 17.1759 15.4194C17.1892 15.173 17.1048 14.9314 16.9411 14.7469L4.44345 0.994508ZM9.9997 13.1875C7.68798 13.1875 5.6661 12.3492 3.9911 10.6969C3.33224 10.0445 2.76531 9.30539 2.30595 8.49998C2.71767 7.77263 3.77392 6.16404 5.5872 5.03982L12.6255 12.7828C11.7767 13.0538 10.8907 13.1904 9.9997 13.1875ZM19.6091 8.88123C19.5809 8.94451 18.9059 10.4437 17.4216 11.9406C17.3366 12.035 17.2333 12.1111 17.118 12.1643C17.0027 12.2175 16.8778 12.2468 16.7508 12.2503C16.6239 12.2537 16.4976 12.2314 16.3795 12.1846C16.2615 12.1378 16.1541 12.0675 16.0641 11.978C15.974 11.8884 15.9031 11.7815 15.8556 11.6638C15.8081 11.546 15.785 11.4198 15.7878 11.2928C15.7905 11.1659 15.819 11.0408 15.8716 10.9252C15.9241 10.8096 15.9996 10.7058 16.0934 10.6203C16.717 9.98633 17.2549 9.27351 17.6934 8.49998C17.2344 7.69439 16.6674 6.95527 16.0083 6.3031C14.3325 4.65076 12.3114 3.81248 9.9997 3.81248C9.73798 3.81248 9.47626 3.82341 9.21845 3.84529C9.09421 3.8586 8.96856 3.84694 8.84889 3.81099C8.72922 3.77505 8.61795 3.71555 8.5216 3.63598C8.42526 3.55642 8.3458 3.45839 8.28788 3.34768C8.22996 3.23696 8.19476 3.11578 8.18434 2.99127C8.17393 2.86675 8.18851 2.74141 8.22723 2.62261C8.26595 2.50381 8.32802 2.39395 8.40981 2.29949C8.4916 2.20502 8.59144 2.12786 8.70347 2.07253C8.81551 2.01721 8.93747 1.98484 9.0622 1.97732C9.36923 1.95076 9.6872 1.93748 9.9997 1.93748C12.8122 1.93748 15.3614 3.00545 17.3817 5.02498C18.8934 6.5367 19.5778 8.05623 19.6067 8.11951C19.66 8.23934 19.6878 8.36897 19.6882 8.50012C19.6886 8.63127 19.6616 8.76107 19.6091 8.88123Z" fill="#CBD5E1"/>
</svg>
