<svg width="16" height="17" viewBox="0 0 16 17" fill="none" xmlns="http://www.w3.org/2000/svg">
<path d="M7.1875 15.375C7.1875 15.6236 7.08873 15.8621 6.91291 16.0379C6.7371 16.2137 6.49864 16.3125 6.25 16.3125H1.25C1.00136 16.3125 0.762903 16.2137 0.587087 16.0379C0.411272 15.8621 0.3125 15.6236 0.3125 15.375V1.625C0.3125 1.37636 0.411272 1.1379 0.587087 0.962087C0.762903 0.786272 1.00136 0.6875 1.25 0.6875H6.25C6.49864 0.6875 6.7371 0.786272 6.91291 0.962087C7.08873 1.1379 7.1875 1.37636 7.1875 1.625C7.1875 1.87364 7.08873 2.1121 6.91291 2.28791C6.7371 2.46373 6.49864 2.5625 6.25 2.5625H2.1875V14.4375H6.25C6.49864 14.4375 6.7371 14.5363 6.91291 14.7121C7.08873 14.8879 7.1875 15.1264 7.1875 15.375ZM15.6633 7.83672L12.5383 4.71172C12.3622 4.5356 12.1233 4.43665 11.8742 4.43665C11.6251 4.43665 11.3863 4.5356 11.2102 4.71172C11.034 4.88784 10.9351 5.12671 10.9351 5.37578C10.9351 5.62485 11.034 5.86372 11.2102 6.03984L12.7344 7.5625H6.25C6.00136 7.5625 5.7629 7.66127 5.58709 7.83709C5.41127 8.0129 5.3125 8.25136 5.3125 8.5C5.3125 8.74864 5.41127 8.9871 5.58709 9.16291C5.7629 9.33873 6.00136 9.4375 6.25 9.4375H12.7344L11.2094 10.9617C11.0333 11.1378 10.9343 11.3767 10.9343 11.6258C10.9343 11.8749 11.0333 12.1137 11.2094 12.2898C11.3855 12.466 11.6244 12.5649 11.8734 12.5649C12.1225 12.5649 12.3614 12.466 12.5375 12.2898L15.6625 9.16484C15.7499 9.0778 15.8194 8.97435 15.8667 8.86042C15.9141 8.74649 15.9386 8.62433 15.9386 8.50094C15.9387 8.37755 15.9144 8.25537 15.8672 8.14138C15.8199 8.0274 15.7506 7.92387 15.6633 7.83672Z" fill="white"/>
</svg>
