<svg width="20" height="17" viewBox="0 0 20 17" fill="none" xmlns="http://www.w3.org/2000/svg">
<path d="M1.2002 14.3623H18.7998C19.1038 14.3623 19.3965 14.4979 19.6133 14.7402C19.8302 14.9828 19.9531 15.3131 19.9531 15.6582C19.9531 16.0031 19.8301 16.3327 19.6133 16.5752C19.3965 16.8176 19.1038 16.9531 18.7998 16.9531H1.2002C0.896168 16.9531 0.603481 16.8176 0.386719 16.5752C0.169927 16.3327 0.0469482 16.0031 0.046875 15.6582C0.046875 15.3131 0.169802 14.9828 0.386719 14.7402C0.603473 14.4979 0.896206 14.3623 1.2002 14.3623ZM1.2002 7.20508H18.7998C19.1037 7.20508 19.3965 7.33976 19.6133 7.58203C19.8302 7.82463 19.9531 8.1549 19.9531 8.5C19.9531 8.8451 19.8302 9.17536 19.6133 9.41797C19.3965 9.66024 19.1037 9.79492 18.7998 9.79492H1.2002C0.896278 9.79492 0.603458 9.66024 0.386719 9.41797C0.169802 9.17536 0.046875 8.8451 0.046875 8.5C0.046875 8.1549 0.169802 7.82463 0.386719 7.58203C0.603458 7.33976 0.896278 7.20508 1.2002 7.20508ZM1.2002 0.046875H18.7998C19.1038 0.046875 19.3965 0.182373 19.6133 0.424805C19.8301 0.667326 19.9531 0.996856 19.9531 1.3418C19.9531 1.6869 19.8302 2.01716 19.6133 2.25977C19.3965 2.50214 19.1038 2.6377 18.7998 2.6377H1.2002C0.896206 2.6377 0.603473 2.50214 0.386719 2.25977C0.169802 2.01716 0.046875 1.6869 0.046875 1.3418C0.046948 0.996856 0.169928 0.667326 0.386719 0.424805C0.603481 0.182373 0.896168 0.046875 1.2002 0.046875Z" fill="#475569" stroke="#475569" stroke-width="0.09375"/>
</svg>
