<svg width="67" height="67" viewBox="0 0 67 67" fill="none" xmlns="http://www.w3.org/2000/svg">
<path d="M5.58325 5.58337L61.4166 61.4167" stroke="#1E293B" stroke-width="2" stroke-linecap="round" stroke-linejoin="round"/>
<path d="M29.0613 29.0613C28.5426 29.5801 27.9267 29.9915 27.2489 30.2723C26.5712 30.553 25.8447 30.6975 25.1111 30.6975C24.3775 30.6975 23.651 30.553 22.9733 30.2723C22.2955 29.9915 21.6796 29.5801 21.1609 29.0613C20.6421 28.5426 20.2306 27.9267 19.9499 27.2489C19.6692 26.5712 19.5247 25.8447 19.5247 25.1111C19.5247 24.3775 19.6692 23.651 19.9499 22.9733C20.2306 22.2955 20.6421 21.6796 21.1609 21.1609" stroke="#1E293B" stroke-width="2" stroke-linecap="round" stroke-linejoin="round"/>
<path d="M37.6875 37.6875L16.75 58.625" stroke="#1E293B" stroke-width="2" stroke-linecap="round" stroke-linejoin="round"/>
<path d="M50.25 33.5L58.625 41.875" stroke="#1E293B" stroke-width="2" stroke-linecap="round" stroke-linejoin="round"/>
<path d="M10.0221 10.0221C9.50166 10.5373 9.08823 11.1503 8.80556 11.8258C8.52289 12.5013 8.37657 13.2261 8.375 13.9583V53.0417C8.375 54.5225 8.96324 55.9426 10.0103 56.9897C11.0574 58.0368 12.4775 58.625 13.9583 58.625H53.0417C54.5771 58.625 55.9785 58.0108 56.9779 56.9779" stroke="#1E293B" stroke-width="2" stroke-linecap="round" stroke-linejoin="round"/>
<path d="M58.625 41.875V13.9583C58.625 12.4775 58.0368 11.0574 56.9897 10.0103C55.9426 8.96324 54.5225 8.375 53.0417 8.375H25.125" stroke="#1E293B" stroke-width="2" stroke-linecap="round" stroke-linejoin="round"/>
</svg>
