<svg width="24" height="24" viewBox="0 0 24 24" fill="none" xmlns="http://www.w3.org/2000/svg">
<path d="M22 17C22 17.5304 21.7893 18.0391 21.4142 18.4142C21.0391 18.7893 20.5304 19 20 19H6.828C6.29761 19.0001 5.78899 19.2109 5.414 19.586L3.212 21.788C3.1127 21.8873 2.9862 21.9549 2.84849 21.9823C2.71077 22.0097 2.56803 21.9956 2.43831 21.9419C2.30858 21.8881 2.1977 21.7971 2.11969 21.6804C2.04167 21.5637 2.00002 21.4264 2 21.286V5C2 4.46957 2.21071 3.96086 2.58579 3.58579C2.96086 3.21071 3.46957 3 4 3H20C20.5304 3 21.0391 3.21071 21.4142 3.58579C21.7893 3.96086 22 4.46957 22 5V17Z" stroke="white" stroke-width="2" stroke-linecap="round" stroke-linejoin="round"/>
<path d="M14 13C14.5304 13 15.0391 12.7893 15.4142 12.4142C15.7893 12.0391 16 11.5304 16 11V9H14" stroke="white" stroke-width="2" stroke-linecap="round" stroke-linejoin="round"/>
<path d="M8 13C8.53043 13 9.03914 12.7893 9.41421 12.4142C9.78929 12.0391 10 11.5304 10 11V9H8" stroke="white" stroke-width="2" stroke-linecap="round" stroke-linejoin="round"/>
</svg>
